<svg width="24" height="24" viewBox="0 0 24 24" fill="none" xmlns="http://www.w3.org/2000/svg">
<path d="M2.40039 2.09316C1.90333 2.09316 1.50039 2.49611 1.50039 2.99316C1.50039 3.49022 1.90333 3.89316 2.40039 3.89316V2.09316ZM4.69293 2.99316L5.56163 2.75789C5.45538 2.36558 5.09937 2.09316 4.69293 2.09316V2.99316ZM8.4183 16.7484L7.5496 16.9837C7.66684 17.4166 8.08491 17.6971 8.52993 17.6414L8.4183 16.7484ZM19.881 15.3156L19.9926 16.2086C20.3748 16.1608 20.6843 15.8751 20.7623 15.4979L19.881 15.3156ZM21.6004 7.00511L22.4817 7.18745C22.5366 6.92239 22.4692 6.64672 22.2983 6.43682C22.1274 6.22693 21.8711 6.10511 21.6004 6.10511V7.00511ZM5.77949 7.00511L4.91079 7.24038L5.77949 7.00511ZM2.40039 3.89316H4.69293V2.09316H2.40039V3.89316ZM8.52993 17.6414L19.9926 16.2086L19.7694 14.4225L8.30667 15.8553L8.52993 17.6414ZM20.7623 15.4979L22.4817 7.18745L20.7191 6.82276L18.9996 15.1332L20.7623 15.4979ZM3.82422 3.22844L4.91079 7.24038L6.6482 6.76983L5.56163 2.75789L3.82422 3.22844ZM4.91079 7.24038L7.5496 16.9837L9.287 16.5131L6.6482 6.76983L4.91079 7.24038ZM21.6004 6.10511H5.77949V7.90511H21.6004V6.10511ZM11.1004 20.5004C11.1004 20.8318 10.8318 21.1004 10.5004 21.1004V22.9004C11.8259 22.9004 12.9004 21.8259 12.9004 20.5004H11.1004ZM10.5004 21.1004C10.169 21.1004 9.90039 20.8318 9.90039 20.5004H8.10039C8.10039 21.8259 9.17491 22.9004 10.5004 22.9004V21.1004ZM9.90039 20.5004C9.90039 20.1691 10.169 19.9004 10.5004 19.9004V18.1004C9.17491 18.1004 8.10039 19.175 8.10039 20.5004H9.90039ZM10.5004 19.9004C10.8318 19.9004 11.1004 20.1691 11.1004 20.5004H12.9004C12.9004 19.175 11.8259 18.1004 10.5004 18.1004V19.9004ZM19.1004 20.5004C19.1004 20.8318 18.8318 21.1004 18.5004 21.1004V22.9004C19.8259 22.9004 20.9004 21.8259 20.9004 20.5004H19.1004ZM18.5004 21.1004C18.169 21.1004 17.9004 20.8318 17.9004 20.5004H16.1004C16.1004 21.8259 17.1749 22.9004 18.5004 22.9004V21.1004ZM17.9004 20.5004C17.9004 20.1691 18.169 19.9004 18.5004 19.9004V18.1004C17.1749 18.1004 16.1004 19.175 16.1004 20.5004H17.9004ZM18.5004 19.9004C18.8318 19.9004 19.1004 20.1691 19.1004 20.5004H20.9004C20.9004 19.175 19.8259 18.1004 18.5004 18.1004V19.9004Z" fill="#F5F5F5"/>
</svg>
