<svg width="70" height="70" viewBox="0 0 70 70" fill="none" xmlns="http://www.w3.org/2000/svg">
<g clip-path="url(#clip0_644_8962)">
<path fill-rule="evenodd" clip-rule="evenodd" d="M0.0007 57.8154C0.5208 57.275 1.0059 56.6933 1.5673 56.2005C5.2437 52.9763 8.9509 49.7864 12.6042 46.537C13.0214 46.166 13.3168 45.5213 13.4204 44.9585C13.7333 43.24 14.4627 41.8344 15.8718 40.7494C20.5667 37.1367 25.235 33.4904 29.9138 29.8553C30.3513 29.5151 30.7811 29.1651 31.2725 28.7731C30.8189 28.1606 30.4024 27.5859 29.9733 27.0203C29.4518 26.3336 29.4686 25.6882 30.1574 25.145C31.9053 23.7667 33.6623 22.3989 35.4319 21.0472C36.12 20.5208 36.7612 20.6391 37.2953 21.3237C37.7097 21.855 38.1248 22.3856 38.6449 23.0513C40.0057 21.9943 41.3399 20.9576 42.6748 19.9216C43.491 19.2881 44.3044 18.6497 45.1262 18.0232C46.2924 17.1335 46.6403 17.1832 47.5818 18.341C47.8275 18.6434 48.0795 18.9409 48.3658 19.286C52.7198 15.9001 57.015 12.559 61.4313 9.12477C60.7691 8.25117 60.1335 7.41257 59.4972 6.57467C58.6075 5.40357 58.6509 5.01647 59.7667 4.11277C60.473 3.54087 61.1751 2.96337 61.8793 2.38867C62.1971 2.38867 62.5156 2.38867 62.8341 2.38867C63.7602 3.50237 64.6863 4.61677 65.6075 5.72557C67.3225 4.79457 67.3372 4.80087 68.5923 6.39407C69.0522 6.97787 69.5317 7.54627 70.0021 8.12237C70.0021 8.44087 70.0021 8.75937 70.0021 9.07787C66.5966 11.7589 63.1904 14.4399 59.7849 17.1223C59.4447 17.3904 59.1108 17.6648 58.7839 17.9287C59.7121 19.6948 59.7051 19.7102 58.0909 20.9618C56.3675 22.2988 54.6504 23.6428 52.9501 24.9679C53.8097 26.8208 53.8062 26.8166 52.2046 28.0612C47.866 31.4296 43.5323 34.8029 39.1979 38.1776C38.9501 38.3701 38.7191 38.585 38.4237 38.8384C40.901 41.1862 43.8571 42.3384 47.1205 42.7556C48.3364 42.911 49.5789 42.8851 50.8088 42.8984C51.7615 42.9082 52.2361 43.3212 52.1178 44.2893C51.828 46.6588 51.5067 49.0234 51.2281 51.3936C51.1014 52.4737 50.3384 52.5962 49.5061 52.6305C44.338 52.8405 39.4604 51.8283 34.9818 49.1522C34.6479 48.9534 34.3119 48.7574 33.817 48.4669C33.9703 50.2421 32.7124 50.9736 31.584 51.6197C29.3013 52.9266 28.4361 54.5849 29.5687 57.1168C30.2134 58.5574 29.7563 59.6452 28.3731 60.5111C27.0977 61.3091 25.9812 62.3584 24.7737 63.2684C23.5823 64.1644 22.7843 63.8536 22.5092 62.3822C21.9247 59.256 21.3654 56.1263 20.7907 52.9994C20.72 52.6137 20.6192 52.2343 20.4554 51.5126C19.9598 52.0096 19.5895 52.3001 19.3179 52.6648C15.9684 57.1672 12.6413 61.6857 9.2848 66.1839C8.89 66.7124 8.3545 67.1373 7.8841 67.6105C7.7245 67.6105 7.5656 67.6105 7.4067 67.6105C7.1071 67.3067 6.7739 67.0288 6.5142 66.6942C4.3351 63.8998 2.1693 61.0942 0 58.2935C0.0007 58.1339 0.0007 57.975 0.0007 57.8154ZM32.7754 30.7037C32.5899 30.7618 32.5024 30.766 32.4457 30.8094C27.3238 34.7847 22.1732 38.7243 17.1206 42.7857C16.4108 43.3555 15.8823 44.5 15.8067 45.424C15.7171 46.5258 15.4406 47.3021 14.5656 47.9335C14.0189 48.3283 13.5401 48.8148 13.0305 49.26C9.6453 52.2126 6.2601 55.1652 2.8063 58.1773C4.4415 60.2773 6.0354 62.3248 7.6818 64.4374C7.9996 64.0286 8.1991 63.7829 8.3867 63.5295C11.5836 59.2147 14.7868 54.9055 17.9648 50.5781C18.4702 49.8907 19.0218 49.5386 19.9178 49.4511C20.6556 49.379 21.4452 49.0017 22.0493 48.5446C25.3169 46.075 28.5355 43.5375 31.7702 41.0231C33.6196 39.5853 35.4683 38.1468 37.4115 36.6355C36.8333 35.9068 36.3062 35.2432 35.749 34.5404C32.9112 36.7468 30.1819 38.872 27.4512 40.9951C25.5983 42.4357 23.765 43.9029 21.8701 45.2861C21.5278 45.5367 20.8957 45.5626 20.4603 45.4485C20.2083 45.3834 19.8772 44.7814 19.9458 44.5126C20.0592 44.0639 20.3854 43.5886 20.7571 43.296C24.9473 40.0018 29.1634 36.7398 33.3711 33.4673C33.677 33.2293 33.9668 32.9724 34.3273 32.6707C33.7617 31.9539 33.2563 31.3127 32.7754 30.7037ZM39.242 35.2138C43.1221 32.1961 46.928 29.2344 50.7878 26.2314C49.1785 24.1636 47.6511 22.2022 46.0873 20.1939C42.1925 23.2221 38.4069 26.1649 34.5401 29.1714C36.1298 31.2147 37.6558 33.1754 39.242 35.2138ZM24.5049 60.5342C25.5038 59.7656 26.3564 59.1419 27.1614 58.4615C27.3175 58.3299 27.3798 57.9624 27.3336 57.7349C26.7512 54.8292 26.1408 51.9291 25.5003 48.8498C24.5966 49.5435 23.8077 50.1259 23.0524 50.7503C22.9089 50.8686 22.8144 51.1696 22.8473 51.3586C23.373 54.3497 23.9225 57.3366 24.5049 60.5342ZM35.0014 41.4522C39.039 45.473 43.9215 46.8527 49.4501 46.8086C49.5411 46.2962 49.6195 45.8475 49.7252 45.2511C44.6446 45.1776 40.1702 43.744 36.4896 40.2804C35.959 40.6976 35.5278 41.0371 35.0014 41.4522ZM49.1463 49.0171C42.9842 49.1333 37.5585 47.349 33.1443 42.8816C32.7537 43.1987 32.4254 43.4668 32.0733 43.7524C32.2105 43.9526 32.2777 44.0989 32.3862 44.2018C36.8382 48.4326 42.2016 50.3184 48.2769 50.3982C49.2954 50.4108 49.1498 49.757 49.1463 49.0171ZM55.0039 17.0523C53.2119 18.4495 51.5102 19.7767 49.7518 21.1473C50.372 21.9159 50.8865 22.5536 51.4248 23.2207C53.2 21.8347 54.8828 20.5208 56.6342 19.1523C56.0714 18.4264 55.5709 17.781 55.0039 17.0523ZM56.9051 15.5711C56.9527 15.7034 57.001 15.8357 57.0479 15.968C57.2831 15.9029 57.5673 15.9015 57.7458 15.7636C60.7411 13.4571 63.728 11.1387 66.7009 8.80207C66.8822 8.65927 66.9298 8.34707 67.0397 8.11327C66.9438 8.04817 66.8479 7.98307 66.7513 7.91727C63.4697 10.4688 60.1874 13.0196 56.9051 15.5711ZM35.7959 23.1724C34.4995 24.1846 33.3501 25.0827 32.1258 26.0396C32.494 26.5086 32.7957 26.8936 33.1408 27.3346C34.4099 26.3476 35.5824 25.4348 36.7969 24.4905C36.4315 24.0096 36.1487 23.6379 35.7959 23.1724ZM30.0342 45.3078C29.4049 45.8048 28.861 46.2339 28.3171 46.6637C28.3045 46.7925 28.2933 46.9206 28.2814 47.0501C29.162 47.2783 30.0426 47.5072 31.227 47.8159C30.7426 46.7946 30.4108 46.0988 30.0342 45.3078ZM61.8611 5.48267C62.9853 7.50637 63.0462 7.55677 63.756 7.19417C63.1099 6.60827 62.9146 5.56317 61.8611 5.48267ZM28.3332 51.2599C28.9569 50.7727 29.3762 50.4437 29.9138 50.0223C29.2019 49.855 28.6636 49.729 28.0252 49.5792C28.1316 50.1574 28.2121 50.5977 28.3332 51.2599Z" fill="#F4F1F2"/>
<path fill-rule="evenodd" clip-rule="evenodd" d="M14.8136 2.38882C15.2315 2.99572 15.7138 3.56832 16.0554 4.21512C16.9815 5.97142 17.8684 7.74942 18.7273 9.54002C19.0276 10.1658 19.3755 10.513 20.1266 10.6019C22.2952 10.8588 24.4582 11.1829 26.6058 11.5756C27.1602 11.6771 27.9533 12.0334 28.0842 12.4471C28.2158 12.8643 27.7762 13.6091 27.3849 14.0186C25.9296 15.5425 24.4127 17.009 22.8734 18.4489C22.2917 18.9928 22.0677 19.5437 22.2168 20.3319C22.6102 22.3997 22.9952 24.471 23.2808 26.5549C23.3634 27.1583 23.0988 27.8093 22.9931 28.4379C22.3701 28.3329 21.682 28.3616 21.1367 28.097C19.2068 27.1639 17.3448 26.0887 15.4086 25.1654C14.9648 24.9533 14.2424 24.9498 13.8028 25.1654C11.8064 26.1454 9.88418 27.2759 7.89198 28.2636C7.42578 28.4946 6.62428 28.608 6.27708 28.3581C5.94318 28.118 5.83958 27.3165 5.91028 26.7985C6.21618 24.5571 6.66138 22.3346 6.96028 20.0925C7.02118 19.6354 6.81118 18.9914 6.49198 18.6596C4.92048 17.0272 3.24048 15.4991 1.66898 13.8667C1.31128 13.4943 0.996979 12.8006 1.09988 12.3547C1.17898 12.0103 1.91468 11.6792 2.40328 11.5917C4.59148 11.2004 6.80488 10.9414 8.98958 10.5305C9.47328 10.4395 10.0543 10.0244 10.2888 9.59392C11.3535 7.64162 12.2915 5.62002 13.3212 3.64812C13.5662 3.17912 13.9932 2.80462 14.3362 2.38672C14.4951 2.38882 14.654 2.38882 14.8136 2.38882ZM8.14258 25.5721C9.76868 24.7342 11.2415 24.1189 12.554 23.2586C13.9512 22.3423 15.1454 22.4382 16.5069 23.2838C17.8313 24.1063 19.2635 24.7552 20.8875 25.6043C20.5599 23.6135 20.3548 21.9223 19.9845 20.2675C19.7129 19.0509 19.9334 18.1577 20.8819 17.2967C22.1237 16.1697 23.2276 14.8908 24.5569 13.5048C22.466 13.1905 20.6768 12.858 18.8722 12.676C17.9153 12.5794 17.3721 12.186 16.9801 11.3306C16.2003 9.62402 15.3358 7.95662 14.3971 6.05192C13.4395 7.99442 12.5673 9.68212 11.7763 11.4055C11.4214 12.1783 10.9482 12.557 10.0809 12.655C8.21048 12.8664 6.35268 13.1926 4.28348 13.5034C5.76608 15 7.05268 16.3398 8.38828 17.6278C9.01338 18.2298 9.29408 18.8143 9.10508 19.7299C8.72218 21.5786 8.48208 23.456 8.14258 25.5721Z" fill="#BD2957"/>
</g>
<defs>
<clipPath id="clip0_644_8962">
<rect width="70" height="70" fill="white"/>
</clipPath>
</defs>
</svg>
