<svg width="71" height="70" viewBox="0 0 71 70" fill="none" xmlns="http://www.w3.org/2000/svg">
<path fill-rule="evenodd" clip-rule="evenodd" d="M33.816 0C35.0042 0.452804 36.3008 0.733163 37.3593 1.39366C39.8321 2.93645 41.0403 5.297 41.0907 8.21121C41.1265 10.2583 41.0978 12.306 41.0978 14.3439C42.0771 14.9089 44.2365 13.6844 43.8043 16.3096C36.3333 16.3096 28.8797 16.3096 21.3403 16.3096C21.3403 28.3927 21.3403 40.3554 21.3403 52.4521C22.9569 52.4521 24.5707 52.4521 26.2387 52.4521C26.2387 53.0882 26.2387 53.5909 26.2387 54.1369C26.0874 54.1662 25.9573 54.2123 25.8277 54.2129C21.0681 54.2183 16.3069 54.2123 11.5467 54.228C10.7615 54.2308 10.3738 53.9108 10.3933 53.1196C10.3982 52.9461 10.3922 52.772 10.3922 52.5985C10.3917 40.4715 10.3911 28.3445 10.3922 16.218C10.3928 14.6231 10.4958 14.5266 12.1199 14.5196C12.9187 14.5163 13.7169 14.5049 14.5163 14.4924C14.5803 14.4914 14.6442 14.4496 14.859 14.3737C14.859 12.5337 14.8162 10.6374 14.8769 8.74427C14.9089 7.74756 14.9815 6.7118 15.2803 5.77149C16.2423 2.74068 18.3497 0.900728 21.4575 0.20932C21.689 0.158346 21.913 0.0704965 22.1407 0C23.3224 0 24.5034 0 25.6851 0C27.2138 0.669174 28.743 0.664836 30.2717 0C31.4533 0 32.6349 0 33.816 0ZM19.3512 50.7401C19.3512 39.7264 19.3512 29.0169 19.3512 18.0406C18.5335 19.0091 17.8665 19.7851 17.2147 20.5741C15.9132 22.1505 15.6811 22.1554 14.3981 20.6083C13.7278 19.8003 13.0505 18.9983 12.2284 18.0178C12.2284 29.0326 12.2284 39.7611 12.2284 50.7417C13.1812 49.6084 13.9697 48.6545 14.7766 47.7163C15.5515 46.8156 16.0151 46.8113 16.7938 47.7082C17.604 48.6436 18.3903 49.5997 19.3512 50.7401ZM22.9276 14.4529C23.324 10.1607 21.8159 5.51879 25.7013 1.98529C24.6477 1.87358 23.7231 1.8367 22.8023 1.88009C19.7298 2.0265 17.1355 4.19508 16.8183 7.24595C16.5726 9.60541 16.7689 12.011 16.7689 14.4534C18.8404 14.4529 20.8696 14.4529 22.9276 14.4529ZM30.1887 2.06446C32.5753 4.22925 33.1149 6.90106 32.9793 9.82938C32.9093 11.3472 32.9674 12.8705 32.9674 14.455C35.0947 14.455 37.1245 14.455 39.1971 14.455C39.1971 12.0034 39.4189 9.58969 39.1466 7.23348C38.6933 3.30791 34.713 1.04823 30.1887 2.06446ZM31.0743 14.455C31.0743 12.0077 31.1941 9.61734 31.0336 7.24541C30.9203 5.5703 29.9599 4.21189 28.6172 3.15336C28.1492 2.78461 27.8016 2.81064 27.3407 3.16638C25.9822 4.21569 25.0436 5.58549 24.9308 7.25951C24.7713 9.62927 24.8906 12.0175 24.8906 14.455C26.9714 14.455 28.9973 14.455 31.0743 14.455ZM13.2766 52.3973C15.0293 52.3973 16.5536 52.3973 18.2981 52.3973C17.3996 51.3106 16.6225 50.3724 15.7961 49.3725C14.9691 50.3654 14.2017 51.2862 13.2766 52.3973ZM15.795 19.3985C16.6312 18.3822 17.3876 17.4631 18.2314 16.4365C16.5308 16.4365 15.0146 16.4365 13.3238 16.4365C14.198 17.4837 14.9485 18.3844 15.795 19.3985Z" fill="#F5F5F5"/>
<path fill-rule="evenodd" clip-rule="evenodd" d="M28.585 34.4625C26.7504 34.2331 26.7504 34.2331 26.7499 32.5304C26.7494 30.5847 26.783 28.6384 26.7363 26.6938C26.7136 25.7426 27.0818 25.3912 28.0199 25.4048C30.451 25.4395 32.8836 25.4162 35.3158 25.4156C35.6813 25.4156 36.0478 25.4156 36.4535 25.4156C35.4193 21.9017 35.8038 20.1035 37.7896 18.8291C39.6226 17.6534 41.648 17.9783 43.8865 19.8437C44.9092 18.8231 46.1012 17.9945 47.6158 18.1979C48.5094 18.3177 49.4715 18.616 50.203 19.1225C52.0587 20.4077 52.3537 22.4727 51.2024 25.3462C51.6021 25.3712 51.9551 25.4124 52.3076 25.4129C54.7045 25.4183 57.1019 25.4124 59.4993 25.4178C60.8479 25.4205 60.9358 25.5067 60.9401 26.8212C60.9461 28.7669 60.9428 30.7121 60.9412 32.6578C60.9401 34.2722 60.9391 34.2722 59.2119 34.4283C59.2119 34.815 59.2119 35.2174 59.2119 35.6192C59.2119 41.2481 59.2124 46.8758 59.2113 52.5047C59.2108 54.0817 59.1083 54.1874 57.5818 54.188C48.4102 54.1885 39.2381 54.1885 30.0659 54.1874C28.6392 54.1874 28.5866 54.1381 28.5861 52.7314C28.5833 47.0683 28.5844 41.4048 28.5844 35.7423C28.585 35.3302 28.585 34.9202 28.585 34.4625ZM30.3723 34.4245C30.3246 34.5785 30.2698 34.6745 30.2698 34.7711C30.2617 40.433 30.2671 46.095 30.2444 51.7569C30.2416 52.4749 30.6305 52.5237 31.1711 52.521C33.5333 52.5118 35.896 52.4803 38.2571 52.5367C39.1578 52.5584 39.3492 52.2222 39.3444 51.3914C39.3124 46.0771 39.3292 40.7622 39.3254 35.4478C39.3254 35.1138 39.2853 34.7803 39.2619 34.4245C36.242 34.4245 33.3088 34.4245 30.3723 34.4245ZM48.4335 52.4483C51.4285 52.4483 54.3612 52.4483 57.3389 52.4483C57.3389 46.3948 57.3389 40.4119 57.3389 34.431C54.3238 34.431 51.3895 34.431 48.4335 34.431C48.4335 40.4612 48.4335 46.4203 48.4335 52.4483ZM41.0986 34.4066C41.0986 40.3159 41.0932 46.1031 41.1209 51.8903C41.122 52.0953 41.4441 52.4722 41.6241 52.4771C43.2412 52.5237 44.861 52.5042 46.4981 52.5042C46.4981 46.3829 46.4981 40.4059 46.4981 34.4066C44.6956 34.4066 42.9733 34.4066 41.0986 34.4066ZM59.2688 32.5531C59.2688 30.8656 59.2884 29.2799 59.2428 27.6954C59.2374 27.5034 58.8843 27.1607 58.6891 27.158C55.7456 27.1227 52.8021 27.1217 49.8592 27.1531C49.6493 27.1553 49.2681 27.4703 49.2627 27.6482C49.216 29.2631 49.235 30.8797 49.235 32.5531C52.6129 32.5531 55.8557 32.5531 59.2688 32.5531ZM38.3986 27.1325C35.2252 27.1325 32.1808 27.1217 29.1365 27.1547C28.9304 27.1569 28.5568 27.4785 28.5514 27.6596C28.5053 29.2745 28.5248 30.891 28.5248 32.532C31.8978 32.532 35.1298 32.532 38.3986 32.532C38.3986 30.73 38.3986 29.0088 38.3986 27.1325ZM47.4585 32.551C47.4585 31.5505 47.4585 30.6866 47.4585 29.8222C47.4585 27.1244 47.4585 27.1244 44.7422 27.1244C43.2656 27.1244 41.789 27.1244 40.321 27.1244C40.321 29.0511 40.321 30.7989 40.321 32.551C42.7108 32.551 45.0182 32.551 47.4585 32.551ZM43.0118 23.7373C43.021 23.7367 43.0297 23.7362 43.0389 23.7357C43.0064 23.2183 43.0335 22.689 42.9321 22.1864C42.6355 20.72 41.4533 19.8318 40.0157 19.9354C38.6996 20.0303 37.6112 21.1251 37.5321 22.4342C37.4448 23.8848 38.3227 25.0447 39.8053 25.3169C40.4446 25.4341 41.1192 25.3435 41.7678 25.4254C42.784 25.5545 43.1739 25.144 43.0151 24.1521C42.9928 24.0171 43.0118 23.8756 43.0118 23.7373ZM46.413 25.4129C46.4152 25.4303 46.4168 25.4482 46.419 25.4661C46.9661 25.407 47.5257 25.401 48.0583 25.2779C49.5062 24.9439 50.3147 23.7514 50.1536 22.2715C50.0175 21.0248 48.9124 19.9993 47.6342 19.9337C46.2254 19.8616 45.0464 20.7385 44.8149 22.1473C44.6815 22.9591 44.7287 23.7991 44.6799 24.6261C44.6457 25.2063 44.906 25.452 45.4786 25.4167C45.7888 25.3972 46.1012 25.4129 46.413 25.4129Z" fill="#BD2957"/>
</svg>
