<svg width="71" height="70" viewBox="0 0 71 70" fill="none" xmlns="http://www.w3.org/2000/svg">
<g clip-path="url(#clip0_644_8978)">
<path fill-rule="evenodd" clip-rule="evenodd" d="M25.6213 29.225C25.4162 26.9367 25.0501 24.6232 25.0543 22.3104C25.0578 20.6871 25.5702 19.0652 25.8481 17.4412C25.9118 17.0688 26.0581 16.6635 25.9741 16.3198C25.0354 12.4845 27.3678 9.1707 30.4254 7.9765C30.5437 7.9303 30.655 7.8673 30.774 7.8099C30.3281 5.7799 29.8864 3.766 29.4524 1.7864C31.3753 0.833 32.8488 1.239 34.022 3.2172C34.3419 1.9985 34.5876 1.0612 34.8655 0C36.612 1.2915 38.2724 2.5193 39.9965 3.7933C39.0193 5.2752 38.0778 6.7039 37.0985 8.1886C38.6644 9.0797 39.8817 10.2599 40.6496 11.8692C40.7266 12.0309 40.9261 12.1387 41.0759 12.2612C44.1531 14.7721 45.5419 18.088 45.6553 21.9842C45.7267 24.4272 45.5587 26.852 44.7026 29.2621C46.51 29.414 48.2411 29.5421 49.968 29.7101C51.0348 29.8137 52.0918 30.03 53.16 30.0937C53.8985 30.1378 54.1442 30.4752 54.2751 31.1479C54.3374 31.4699 54.6587 31.8731 54.9611 31.9956C56.7874 32.7362 57.7905 34.0697 57.7926 35.9009C57.7947 37.6866 56.814 39.1041 55.0346 39.7355C54.5173 39.9189 54.2632 40.1821 54.2919 40.6875C54.3276 41.3231 53.9629 41.5107 53.4316 41.6353C51.2574 42.1456 49.0895 42.6811 46.8089 43.2341C49.0412 50.7801 51.2714 58.3191 53.5324 65.9617C50.0331 65.9617 46.6633 65.9617 43.2417 65.9617C42.632 68.0764 41.6821 69.8481 39.2153 69.9916C37.655 70.0826 36.5595 69.2188 35.3303 67.0313C34.365 68.9731 33.042 70.4137 30.7096 69.8936C28.7587 69.4582 27.9418 67.8923 27.4679 66.0086C24.0778 66.0086 20.6751 66.0086 17.1163 66.0086C19.3787 58.3646 21.6033 50.8487 23.8692 43.1921C22.969 42.9954 22.0989 42.8169 21.2344 42.6118C19.8771 42.2905 18.517 41.9734 17.1723 41.6017C16.8867 41.5226 16.4576 41.2223 16.4499 41.0109C16.4219 40.1968 16.0131 39.8986 15.2991 39.5983C13.6828 38.9186 12.8624 37.6131 12.8722 35.8358C12.8813 34.1712 13.8466 32.6858 15.4083 32.1419C16.0768 31.9088 16.4702 31.6463 16.4688 30.898C16.4681 30.3366 16.8461 30.1714 17.3732 30.1175C20.183 29.8312 22.9879 29.5134 25.6213 29.225ZM26.0525 41.8754C23.8468 49.3318 21.6586 56.728 19.4494 64.197C30.0838 64.197 40.5915 64.197 51.2147 64.197C48.9943 56.686 46.8019 49.2702 44.6144 41.8712C47.1708 41.3084 49.5501 40.8037 51.9161 40.2409C52.2073 40.1716 52.6413 39.8034 52.6462 39.5654C52.6994 37.1994 52.6833 34.8313 52.6693 32.4632C52.6665 31.9438 52.4271 31.6729 51.8384 31.633C49.2785 31.4636 46.7207 31.2543 44.1643 31.0373C43.577 30.9876 43.2403 31.1738 42.9169 31.7002C39.3476 37.5116 31.313 37.4962 27.7304 31.6722C27.4301 31.1836 27.1186 30.9918 26.5656 31.0373C24.0729 31.2417 21.5809 31.4755 19.084 31.5896C18.1145 31.6337 17.9507 32.1356 17.95 32.8832C17.9479 34.9916 17.9752 37.0993 17.9535 39.2077C17.9465 39.8825 18.2244 40.1625 18.8698 40.2969C21.2162 40.7862 23.5535 41.3224 26.0525 41.8754ZM29.3481 23.6215C27.2901 26.5055 28.2372 30.9169 31.2997 33.0561C34.4735 35.2723 38.9374 34.4764 41.1389 31.3012C43.2753 28.2184 42.6019 23.737 39.727 21.7798C36.5791 24.108 33.371 26.0022 29.3481 23.6215ZM43.8066 24.2151C44.1482 21.1596 43.8024 18.2329 41.9502 15.6912C40.0217 13.0459 37.4856 11.5206 34.0899 12.1415C30.4702 12.8023 28.4941 15.3069 27.3055 18.5661C26.6692 20.3091 26.5194 23.1602 26.9317 24.2361C28.5375 20.5457 31.2577 18.3848 35.3366 18.3862C39.4155 18.3876 42.1322 20.5506 43.8066 24.2151ZM31.8373 3.108C31.7344 3.178 31.6308 3.248 31.5279 3.3187C31.6756 3.9788 31.8163 4.6403 31.9717 5.299C32.405 7.1449 32.4071 7.1442 34.2103 7.3654C34.5001 7.4011 34.7927 7.4809 35.0783 7.4634C35.2764 7.4515 35.5452 7.3612 35.6474 7.2128C36.325 6.2377 36.9655 5.2374 37.6473 4.2014C37.039 3.7569 36.5273 3.3831 35.9232 2.9414C35.6138 4.137 35.3352 5.2122 35.0006 6.5044C33.8554 5.2745 32.846 4.1909 31.8373 3.108ZM27.5953 14.0483C30.095 11.1916 33.1519 9.786 37.2532 10.3579C35.1644 8.9677 33.1757 8.8466 31.1688 9.569C29.1297 10.3019 27.8914 11.8062 27.5953 14.0483ZM30.8097 22.393C32.9244 23.4787 36.1605 22.757 37.8244 20.8754C35.7363 19.7512 32.6297 20.4022 30.8097 22.393ZM29.3362 66.0709C29.7149 67.4814 30.5458 68.3025 31.5237 68.2969C32.5107 68.2913 33.3801 67.3953 33.6412 66.0709C32.2209 66.0709 30.809 66.0709 29.3362 66.0709ZM37.0236 66.0702C37.2917 67.4401 38.2115 68.3305 39.237 68.2927C40.1204 68.2612 41.3272 67.1664 41.2677 66.0702C39.8565 66.0702 38.4446 66.0702 37.0236 66.0702ZM15.9963 33.7974C14.989 34.2482 14.5809 34.9685 14.5963 35.9534C14.611 36.9012 15.0723 37.5459 15.9963 38.017C15.9963 36.5491 15.9963 35.2198 15.9963 33.7974ZM54.6657 38.0268C55.7353 37.4528 56.1553 36.6877 56.0594 35.6587C55.9796 34.8054 55.5645 34.1768 54.6657 33.7988C54.6657 35.2219 54.6657 36.5512 54.6657 38.0268Z" fill="#F4F1F2"/>
<path fill-rule="evenodd" clip-rule="evenodd" d="M41.173 49.0705C41.6728 49.5976 42.1432 50.0085 42.5009 50.5013C42.7424 50.8331 43.0287 51.3518 42.9216 51.6542C42.8236 51.9293 42.2314 52.14 41.8387 52.1743C40.9679 52.2506 40.0845 52.2226 39.2081 52.1925C38.6103 52.1722 38.4059 52.4151 38.4276 52.9989C38.4619 53.9075 38.4759 54.8217 38.4143 55.7275C38.3919 56.0607 38.191 56.5822 37.9607 56.6508C37.6478 56.7453 37.1627 56.5787 36.8687 56.3638C36.3269 55.9676 35.8705 55.4531 35.3049 54.919C34.7505 55.444 34.2696 55.9676 33.7152 56.3939C33.4464 56.6011 32.9711 56.795 32.7142 56.69C32.4594 56.5857 32.2396 56.1083 32.2151 55.7779C32.1465 54.8728 32.164 53.9579 32.1976 53.0493C32.22 52.4242 31.9967 52.1638 31.3548 52.1904C30.5113 52.2261 29.6601 52.2485 28.8215 52.1757C28.419 52.1407 27.7554 51.9307 27.7078 51.6983C27.6322 51.3259 27.8982 50.8191 28.1502 50.46C28.4974 49.9658 28.9657 49.557 29.4333 49.0558C28.9412 48.5301 28.4526 48.0968 28.0809 47.5795C27.8457 47.2519 27.614 46.7549 27.7015 46.4189C27.7645 46.1781 28.3532 45.9653 28.7221 45.9366C29.6272 45.8673 30.5414 45.896 31.4507 45.917C31.9974 45.9296 32.2046 45.6972 32.1934 45.161C32.1738 44.2181 32.1479 43.2724 32.2158 42.3344C32.2389 42.0047 32.4636 41.5259 32.7191 41.423C32.9788 41.3194 33.4513 41.5168 33.7229 41.7247C34.2605 42.1349 34.7232 42.6438 35.3098 43.1982C35.8439 42.6914 36.3178 42.1594 36.8785 41.7429C37.1704 41.5266 37.6618 41.3663 37.9747 41.4643C38.2029 41.535 38.3947 42.0621 38.4157 42.3974C38.4752 43.3368 38.4542 44.2818 38.4318 45.224C38.4192 45.7308 38.6306 45.9233 39.1234 45.9142C40.0012 45.8995 40.8846 45.8561 41.754 45.938C42.1761 45.9779 42.7354 46.176 42.9251 46.4882C43.0567 46.7059 42.7326 47.2897 42.4918 47.6222C42.1355 48.1164 41.6728 48.5329 41.173 49.0705ZM33.7873 53.8221C34.39 53.4665 34.8212 53.0136 35.2538 53.0129C35.7242 53.0115 36.1953 53.4301 36.7847 53.7248C36.7847 53.0311 36.7847 52.3927 36.7854 51.7543C36.7861 50.9696 37.1074 50.5398 37.9656 50.5923C38.6481 50.6343 39.3355 50.6007 40.0215 50.6007C40.0754 50.5328 40.1293 50.4649 40.1825 50.3963C38.8308 49.4919 39.0037 48.5693 40.3988 47.5158C39.4447 47.5158 38.9043 47.5165 38.3639 47.5158C36.8778 47.5123 36.7882 47.4199 36.7833 45.8904C36.7819 45.3983 36.7833 44.9069 36.7833 44.3861C36.1694 44.7025 35.7165 45.1281 35.2839 45.1064C34.8177 45.084 34.3718 44.6437 33.7866 44.3119C33.7866 45.1155 33.7796 45.8211 33.788 46.526C33.7964 47.2162 33.4772 47.5389 32.7765 47.5179C32.0548 47.4976 31.3317 47.5137 30.6086 47.5137C30.5463 47.5774 30.4847 47.6418 30.4224 47.7048C31.8154 48.612 31.6082 49.536 30.239 50.6021C31.3394 50.6021 32.0415 50.6189 32.7422 50.5972C33.4933 50.5734 33.809 50.929 33.7908 51.6598C33.7733 52.3346 33.7873 53.0108 33.7873 53.8221Z" fill="#BD2957"/>
</g>
<defs>
<clipPath id="clip0_644_8978">
<rect width="70" height="70" fill="white" transform="translate(0.333008)"/>
</clipPath>
</defs>
</svg>
