<svg width="400" height="93" viewBox="0 0 400 93" fill="none" xmlns="http://www.w3.org/2000/svg">
<g clip-path="url(#clip0_644_9097)">
<path fill-rule="evenodd" clip-rule="evenodd" d="M167.034 43.8827V54.9178H161.487V32.8502C161.487 29.1701 163.338 27.334 167.034 27.334H194.767C198.466 27.334 200.314 29.1701 200.314 32.8502V54.9178H194.767V43.8827H167.034ZM194.77 38.3664V32.8502H167.037V38.3664H194.77Z" fill="black"/>
<path fill-rule="evenodd" clip-rule="evenodd" d="M361.17 27.334H399.999V32.8502H383.359V54.9178H377.813V32.8502H361.17V27.334Z" fill="black"/>
<path fill-rule="evenodd" clip-rule="evenodd" d="M316.803 27.334H355.624L350.077 32.8502H322.344V38.3664H355.624L350.077 43.8827H322.344V54.9178H316.803V27.334Z" fill="black"/>
<path d="M311.25 27.334H305.703V54.9178H311.25V27.334Z" fill="black"/>
<path fill-rule="evenodd" clip-rule="evenodd" d="M300.157 54.9178H266.88C263.181 54.9178 261.333 53.079 261.333 49.4016V32.8502C261.333 29.1701 263.181 27.334 266.88 27.334H300.157L294.616 32.8502H266.882V49.4016H294.616V43.8827H275.2L280.746 38.3664H300.157V54.9178Z" fill="black"/>
<path d="M255.786 27.334H250.239V54.9178H255.786V27.334Z" fill="black"/>
<path fill-rule="evenodd" clip-rule="evenodd" d="M205.863 54.9178V27.334L239.146 45.3042V27.334H244.693V54.9178L211.41 37.285V54.9178H205.863Z" fill="black"/>
<path fill-rule="evenodd" clip-rule="evenodd" d="M122.664 27.334V38.3664H150.394V27.334H155.944V54.9178H150.394V43.8827H122.664V54.9178H117.114V27.334H122.664Z" fill="black"/>
<path fill-rule="evenodd" clip-rule="evenodd" d="M161.554 75.5726H163.504V68.1379H169.354V75.5726H171.304V67.0378H161.552L161.554 75.5726ZM173.125 73.8295C173.125 75.5726 174.685 75.5726 176.245 75.5726H179.757C181.317 75.5726 182.877 75.5726 182.877 73.8295V68.7862C182.877 67.0405 181.317 67.0405 179.757 67.0405H176.245C174.685 67.0405 173.125 67.0405 173.125 68.7862V73.8295ZM175.077 74.0234V68.5869C175.077 68.1379 175.466 68.1379 175.858 68.1379H180.149C180.538 68.1379 180.928 68.1379 180.928 68.5869V74.0234C180.928 74.4725 180.538 74.4725 180.149 74.4725H175.858C175.466 74.4725 175.077 74.4725 175.077 74.0234ZM184.309 74.4725V77.5149H186V75.5752H194.322V77.5149H196.013V74.4725H194.714V67.0378H186.912V71.8871C186.909 73.6355 186.194 74.4725 184.309 74.4725ZM187.949 74.4725C188.469 73.8932 188.858 73.1838 188.858 71.8871V68.1379H192.76V74.4725H187.949ZM196.792 75.5726H198.744L200.106 72.857H204.53L205.896 75.5726H207.842L203.557 67.0378H201.082L196.792 75.5726ZM200.629 71.8233L202.32 68.4594L204.01 71.8233H200.629ZM209.016 75.5726H210.968V72.0837H215.645C217.208 72.0837 218.77 72.0837 218.77 70.3353V68.7862C218.77 67.0405 217.208 67.0405 215.645 67.0405H209.016V75.5726ZM210.968 70.9863V68.1405H216.034C216.424 68.1405 216.816 68.1405 216.816 68.5896V70.532C216.816 70.9863 216.426 70.9863 216.034 70.9863H210.968ZM220.589 75.5726H222.541V73.8959L224.229 72.2113L227.61 75.5752H229.954L225.402 71.0501L229.434 67.0405H227.09L222.544 71.5682V67.0405H220.592L220.589 75.5726ZM231.12 75.5726H233.202L238.925 69.2353V75.5726H240.872V67.0378H238.789L233.069 73.3751V67.0378H231.12V75.5726ZM247.896 75.5726H249.973L255.696 69.2353V75.5726H257.642V67.0378H255.565L249.845 73.3751V67.0378H247.893L247.896 75.5726ZM264.672 73.8295C264.672 75.5726 266.229 75.5726 267.792 75.5726H273.77V74.4725H267.4C267.01 74.4725 266.618 74.4725 266.618 74.0234V68.5869C266.618 68.1379 267.008 68.1379 267.4 68.1379H273.77V67.0378H267.792C266.229 67.0378 264.672 67.0378 264.672 68.7836V73.8295ZM274.944 67.0378L278.845 72.8543L278.194 73.8268C277.805 74.4087 277.741 74.4698 277.024 74.4698H276.248V75.5699H277.936C279.106 75.5699 279.368 75.1846 279.888 74.4061L284.826 67.0352H282.749L279.89 71.3025L277.026 67.0352L274.944 67.0378ZM285.994 75.5726H292.624C294.186 75.5726 295.744 75.5726 295.744 73.8295V72.0837C295.744 71.1803 295.098 70.9199 294.576 70.7924C295.096 70.6622 295.618 70.2742 295.618 69.4983V68.7862C295.618 67.0405 294.056 67.0405 292.493 67.0405H285.992L285.994 75.5726ZM287.946 74.4725V71.369H293.013C293.402 71.369 293.794 71.369 293.794 71.8233V74.0234C293.794 74.4725 293.405 74.4725 293.013 74.4725H287.946ZM287.946 70.2716V68.1379H292.885C293.274 68.1379 293.666 68.1379 293.666 68.5869V69.8172C293.666 70.2716 293.277 70.2716 292.885 70.2716H287.946ZM297.568 75.5726H306.672V74.4725H299.52V71.369H306.021V70.2716H299.52V68.1379H306.672V67.0378H297.568V75.5726ZM308.49 75.5726H310.442V71.369H316.29V75.5726H318.242V67.0378H316.29V70.2716H310.442V67.0378H308.49V75.5726ZM320.061 75.5726H322.144L327.864 69.2353V75.5726H329.816V67.0378H327.733L322.013 73.3751V67.0378H320.061V75.5726ZM331.634 75.5726H333.586V72.0837H338.269C339.826 72.0837 341.389 72.0837 341.389 70.3353V68.7862C341.389 67.0405 339.826 67.0405 338.269 67.0405H331.634V75.5726ZM333.589 70.9863V68.1405H338.656C339.045 68.1405 339.437 68.1405 339.437 68.5896V70.532C339.437 70.9863 339.048 70.9863 338.656 70.9863H333.589ZM343.208 75.5726H349.192C350.749 75.5726 352.312 75.5726 352.312 73.8295V72.0173C352.312 70.2716 350.749 70.2716 349.192 70.2716H345.16V67.0378H343.208V75.5726ZM345.162 74.4725V71.369H349.584C349.97 71.369 350.36 71.369 350.36 71.8233V74.0234C350.36 74.4725 349.97 74.4725 349.584 74.4725H345.162ZM353.613 75.5726H355.56V67.0378H353.613V75.5726Z" fill="black"/>
<path d="M155.946 70.1719H117.114V71.721H155.946V70.1719Z" fill="#BD2957"/>
<path d="M400.003 70.1719H361.168V71.721H400.003V70.1719Z" fill="#BD2957"/>
<path fill-rule="evenodd" clip-rule="evenodd" d="M23.9785 68.2009C26.6798 65.5039 29.3839 62.8122 32.0879 60.1179V32.8795L23.9785 24.7991C23.9785 16.5327 23.9785 8.26637 23.9785 0H27.0879L39.5279 12.3982V42.7986H53.9679V12.3982L66.4079 0H69.5172C69.5172 8.26637 69.5172 16.5327 69.5172 24.7991L61.4079 32.8821V60.1205C64.1119 62.8149 66.8158 65.5065 69.5172 68.2035C69.5172 76.4699 69.5172 84.7363 69.5172 93.0027H66.4079L53.9652 80.5991V50.2041H39.5252V80.5965L27.0879 93H23.9785C23.9785 84.7336 23.9785 76.4673 23.9785 68.2009Z" fill="black"/>
<path fill-rule="evenodd" clip-rule="evenodd" d="M28.112 50.2031V53.2934L15.6427 65.665H0V62.5721L12.464 50.2031C20.776 50.2031 19.8 50.2031 28.112 50.2031Z" fill="#5F112D"/>
<path fill-rule="evenodd" clip-rule="evenodd" d="M15.6427 27.334C19.8027 31.4552 23.9547 35.5818 28.112 39.7056V42.7986C19.8 42.7986 20.776 42.7986 12.464 42.7986L0 30.4242V27.334C8.312 27.334 7.33333 27.334 15.6427 27.334Z" fill="#5F112D"/>
<path fill-rule="evenodd" clip-rule="evenodd" d="M65.3809 50.2031V53.2934L77.8502 65.665H93.4929V62.5721L81.0262 50.2031C72.7169 50.2031 73.6902 50.2031 65.3809 50.2031Z" fill="#5F112D"/>
<path fill-rule="evenodd" clip-rule="evenodd" d="M77.8502 27.334C73.6902 31.4552 69.5382 35.5818 65.3809 39.7056V42.7986C73.6902 42.7986 72.7142 42.7986 81.0262 42.7986L93.4929 30.4242V27.334C85.1809 27.334 86.1595 27.334 77.8502 27.334Z" fill="#5F112D"/>
</g>
<defs>
<clipPath id="clip0_644_9097">
<rect width="400" height="93" fill="white"/>
</clipPath>
</defs>
</svg>
