<svg width="136" height="28" viewBox="0 0 136 28" fill="none" xmlns="http://www.w3.org/2000/svg">
<g clip-path="url(#clip0_644_7773)">
<path d="M52.0552 14.5043V18.5082H50.0449V10.5014C50.0449 9.16619 50.7157 8.5 52.0552 8.5H62.1065C63.4469 8.5 64.1167 9.16619 64.1167 10.5014V18.5082H62.1065V14.5043H52.0552ZM62.1074 12.5029V10.5014H52.0561V12.5029H62.1074Z" fill="white"/>
<path d="M122.416 8.5H136.489V10.5014H130.458V18.5082H128.448V10.5014H122.416V8.5Z" fill="white"/>
<path d="M106.336 8.5H120.406L118.396 10.5014H108.344V12.5029H120.406L118.396 14.5043H108.344V18.5082H106.336V8.5Z" fill="white"/>
<path d="M104.323 8.5H102.312V18.5082H104.323V8.5Z" fill="white"/>
<path d="M100.301 18.5082H88.2407C86.9002 18.5082 86.2305 17.842 86.2305 16.5068V10.5014C86.2305 9.16619 86.9002 8.5 88.2407 8.5H100.301L98.293 10.5014H88.2427V16.5068H98.293V14.5043H91.2571L93.2664 12.5029H100.301V18.5082Z" fill="white"/>
<path d="M84.2212 8.5H82.2109V18.5082H84.2212V8.5Z" fill="white"/>
<path d="M66.1289 18.5082V8.5L78.1914 15.0201V8.5H80.2017V18.5082L68.1392 12.1105V18.5082H66.1289Z" fill="white"/>
<path d="M35.9741 8.5V12.5029H46.0244V8.5H48.0356V18.5082H46.0244V14.5043H35.9741V18.5082H33.9629V8.5H35.9741Z" fill="white"/>
<path d="M6.95312 20.8003C7.73651 20.0173 8.52067 19.2358 9.30483 18.4536V10.5457L6.95312 8.19974C6.95312 5.79983 6.95312 3.39991 6.95312 1H7.85483L11.4624 4.59949V13.4254H15.65V4.59949L19.2576 1H20.1593C20.1593 3.39991 20.1593 5.79983 20.1593 8.19974L17.8076 10.5464V18.4543C18.5918 19.2373 19.376 20.0173 20.1593 20.801C20.1593 23.2009 20.1593 25.6016 20.1593 28.0008H19.2576L15.6493 24.3997V15.5761H11.4617V24.3997L7.85483 28H6.95312C6.95312 25.6001 6.95312 23.1994 6.95312 20.8003Z" fill="white"/>
<path d="M8.15248 15.5762V16.4726L4.53637 20.0643H0V19.1664L3.61456 15.5762C6.02504 15.5762 5.742 15.5762 8.15248 15.5762Z" fill="white"/>
<path d="M4.53637 8.93555C5.74277 10.132 6.94685 11.3301 8.15248 12.5273V13.4253C5.742 13.4253 6.02504 13.4253 3.61456 13.4253L0 9.83272V8.93555C2.41048 8.93555 2.12667 8.93555 4.53637 8.93555Z" fill="white"/>
<path d="M18.9609 15.5762V16.4726L22.577 20.0643H27.1134V19.1664L23.4981 15.5762C21.0884 15.5762 21.3706 15.5762 18.9609 15.5762Z" fill="white"/>
<path d="M22.577 8.93555C21.3706 10.132 20.1666 11.3301 18.9609 12.5273V13.4253C21.3706 13.4253 21.0876 13.4253 23.4981 13.4253L27.1134 9.83272V8.93555C24.7029 8.93555 24.9868 8.93555 22.577 8.93555Z" fill="white"/>
</g>
<defs>
<clipPath id="clip0_644_7773">
<rect width="136" height="27" fill="white" transform="translate(0 0.5)"/>
</clipPath>
</defs>
</svg>
