<svg width="72" height="72" viewBox="0 0 72 72" fill="none" xmlns="http://www.w3.org/2000/svg">
<path fill-rule="evenodd" clip-rule="evenodd" d="M25.7937 30.4309C25.596 28.2244 25.2429 25.9935 25.247 23.7634C25.2504 22.1981 25.7445 20.6341 26.0124 19.0681C26.0738 18.709 26.2149 18.3182 26.1339 17.9868C25.2288 14.2885 27.4778 11.0931 30.4262 9.94154C30.5403 9.89699 30.6476 9.83624 30.7623 9.78089C30.3324 7.82341 29.9065 5.88146 29.488 3.97258C31.3422 3.05324 32.763 3.44474 33.8943 5.35227C34.2028 4.1771 34.4397 3.27329 34.7077 2.25C36.3918 3.49536 37.9929 4.6793 39.6554 5.90779C38.7131 7.33674 37.8052 8.71441 36.8609 10.1461C38.3709 11.0053 39.5447 12.1434 40.2851 13.6952C40.3594 13.8511 40.5518 13.955 40.6962 14.0732C43.6635 16.4944 45.0027 19.6918 45.112 23.4488C45.1809 25.8045 45.0189 28.1427 44.1934 30.4667C45.9362 30.6132 47.6054 30.7367 49.2706 30.8987C50.2993 30.9986 51.3186 31.2072 52.3486 31.2686C53.0607 31.3111 53.2977 31.6365 53.4239 32.2852C53.484 32.5956 53.7938 32.9844 54.0854 33.1026C55.8464 33.8167 56.8137 35.1026 56.8157 36.8683C56.8177 38.5903 55.8721 39.9571 54.1562 40.566C53.6574 40.7428 53.4124 40.9966 53.4401 41.4839C53.4745 42.0968 53.1228 42.2777 52.6105 42.3979C50.514 42.89 48.4235 43.4063 46.2244 43.9396C48.377 51.216 50.5275 58.4857 52.7077 65.8552C49.3334 65.8552 46.084 65.8552 42.7846 65.8552C42.1967 67.8944 41.2808 69.6028 38.9021 69.7412C37.3975 69.8289 36.3412 68.996 35.1559 66.8866C34.2251 68.7591 32.9493 70.1482 30.7002 69.6467C28.819 69.2268 28.0313 67.7169 27.5744 65.9005C24.3054 65.9005 21.0242 65.9005 17.5926 65.9005C19.7741 58.5295 21.9193 51.2821 24.1042 43.8991C23.2362 43.7094 22.3972 43.5373 21.5635 43.3395C20.2547 43.0297 18.9432 42.7239 17.6466 42.3655C17.3712 42.2892 16.9574 41.9996 16.95 41.7958C16.923 41.0108 16.5288 40.7232 15.8403 40.4337C14.2817 39.7782 13.4906 38.5194 13.5001 36.8056C13.5089 35.2004 14.4397 33.7681 15.9456 33.2436C16.5902 33.0189 16.9695 32.7657 16.9682 32.0442C16.9675 31.5028 17.332 31.3435 17.8403 31.2916C20.5497 31.0155 23.2544 30.709 25.7937 30.4309ZM26.2095 42.6294C24.0826 49.8194 21.9726 56.9514 19.8423 64.1536C30.0968 64.1536 40.2291 64.1536 50.4728 64.1536C48.3317 56.9109 46.2177 49.76 44.1083 42.6254C46.5734 42.0827 48.8677 41.596 51.1492 41.0533C51.43 40.9865 51.8484 40.6314 51.8532 40.4019C51.9045 38.1205 51.8889 35.837 51.8754 33.5535C51.8727 33.0526 51.6419 32.7914 51.0742 32.7529C48.6058 32.5896 46.1394 32.3877 43.6743 32.1785C43.108 32.1306 42.7833 32.3101 42.4714 32.8177C39.0297 38.4215 31.2821 38.4067 27.8275 32.7907C27.5379 32.3196 27.2375 32.1346 26.7043 32.1785C24.3006 32.3756 21.8977 32.601 19.49 32.7111C18.5551 32.7536 18.3972 33.2376 18.3965 33.9585C18.3945 35.9915 18.4208 38.0239 18.3999 40.057C18.3931 40.7077 18.6611 40.9777 19.2834 41.1073C21.546 41.5791 23.7998 42.0962 26.2095 42.6294ZM29.3874 25.0276C27.4029 27.8086 28.3162 32.0624 31.2693 34.1252C34.3297 36.2622 38.6341 35.4947 40.757 32.433C42.817 29.4603 42.1677 25.139 39.3955 23.2517C36.3601 25.4967 33.2666 27.3233 29.3874 25.0276ZM43.3294 25.6C43.6588 22.6537 43.3253 19.8315 41.5393 17.3806C39.6797 14.8298 37.2342 13.359 33.9598 13.9577C30.4694 14.5949 28.5639 17.0101 27.4178 20.1528C26.8042 21.8336 26.6597 24.5828 27.0573 25.6203C28.6057 22.0617 31.2288 19.978 35.162 19.9794C39.0951 19.9807 41.7148 22.0664 43.3294 25.6ZM31.7877 5.24697C31.6884 5.31447 31.5885 5.38197 31.4893 5.45014C31.6317 6.08666 31.7674 6.72453 31.9173 7.35969C32.3351 9.13965 32.3371 9.13898 34.0759 9.35227C34.3553 9.3867 34.6375 9.46365 34.9129 9.44677C35.1039 9.4353 35.3631 9.34822 35.4616 9.20512C36.115 8.26486 36.7327 7.3003 37.3901 6.30131C36.8035 5.87269 36.3101 5.51224 35.7276 5.08632C35.4292 6.23921 35.1606 7.276 34.838 8.52203C33.7337 7.33607 32.7603 6.29118 31.7877 5.24697ZM27.6972 15.7964C30.1076 13.0418 33.0553 11.6864 37.0101 12.2379C34.9959 10.8973 33.0782 10.7806 31.143 11.4771C29.1768 12.1839 27.9827 13.6344 27.6972 15.7964ZM30.7968 23.843C32.8359 24.8899 35.9564 24.194 37.5609 22.3796C35.5474 21.2956 32.5518 21.9233 30.7968 23.843ZM29.3759 65.9605C29.7411 67.3206 30.5423 68.1124 31.4853 68.107C32.437 68.1016 33.2753 67.2376 33.5271 65.9605C32.1576 65.9605 30.7961 65.9605 29.3759 65.9605ZM36.7887 65.9599C37.0472 67.2808 37.9341 68.1394 38.923 68.103C39.7749 68.0726 40.9385 67.0169 40.8812 65.9599C39.5204 65.9599 38.1589 65.9599 36.7887 65.9599ZM16.5126 34.84C15.5413 35.2747 15.1477 35.9693 15.1626 36.919C15.1768 37.8329 15.6216 38.4546 16.5126 38.9089C16.5126 37.4934 16.5126 36.2116 16.5126 34.84ZM53.8005 38.9183C54.8319 38.3648 55.2369 37.627 55.1444 36.6348C55.0675 35.812 54.6672 35.2058 53.8005 34.8413C53.8005 36.2136 53.8005 37.4954 53.8005 38.9183Z" fill="#271F22"/>
<path fill-rule="evenodd" clip-rule="evenodd" d="M40.7897 49.5677C41.2717 50.076 41.7252 50.4722 42.0702 50.9474C42.303 51.2674 42.5791 51.7675 42.4758 52.0591C42.3813 52.3244 41.8103 52.5276 41.4316 52.5607C40.5919 52.6342 39.7401 52.6072 38.895 52.5782C38.3186 52.5586 38.1215 52.7929 38.1424 53.3558C38.1755 54.2319 38.189 55.1135 38.1296 55.9869C38.108 56.3082 37.9142 56.8111 37.6922 56.8772C37.3904 56.9684 36.9227 56.8077 36.6392 56.6005C36.1167 56.2184 35.6766 55.7223 35.1312 55.2073C34.5966 55.7136 34.1329 56.2184 33.5983 56.6295C33.3391 56.8293 32.8808 57.0163 32.6331 56.915C32.3874 56.8145 32.1754 56.3541 32.1518 56.0355C32.0857 55.1628 32.1026 54.2805 32.135 53.4044C32.1566 52.8016 31.9412 52.5505 31.3223 52.5762C30.5089 52.6106 29.6881 52.6322 28.8795 52.562C28.4913 52.5283 27.8514 52.3258 27.8055 52.1017C27.7326 51.7426 27.9891 51.2539 28.2321 50.9076C28.5669 50.4311 29.0185 50.0369 29.4694 49.5536C28.9949 49.0466 28.5237 48.6288 28.1653 48.13C27.9385 47.8141 27.7151 47.3349 27.7995 47.0109C27.8602 46.7787 28.4279 46.5735 28.7836 46.5458C29.6564 46.479 30.5379 46.5067 31.4147 46.5269C31.9419 46.5391 32.1417 46.315 32.1309 45.7979C32.112 44.8887 32.087 43.9768 32.1525 43.0723C32.1748 42.7544 32.3914 42.2927 32.6378 42.1934C32.8882 42.0935 33.3439 42.2839 33.6058 42.4844C34.1242 42.8799 34.5703 43.3706 35.136 43.9052C35.651 43.4165 36.108 42.9035 36.6486 42.5019C36.9301 42.2933 37.4039 42.1388 37.7057 42.2333C37.9257 42.3014 38.1107 42.8097 38.1309 43.133C38.1883 44.0389 38.168 44.9501 38.1464 45.8587C38.1343 46.3474 38.3381 46.533 38.8133 46.5242C39.6598 46.51 40.5116 46.4682 41.35 46.5471C41.757 46.5856 42.2963 46.7766 42.4792 47.0777C42.6061 47.2876 42.2936 47.8506 42.0614 48.1712C41.7178 48.6477 41.2717 49.0493 40.7897 49.5677ZM33.6679 54.1496C34.249 53.8067 34.6648 53.37 35.082 53.3693C35.5356 53.368 35.9898 53.7716 36.5582 54.0558C36.5582 53.3869 36.5582 52.7713 36.5589 52.1557C36.5595 51.399 36.8693 50.9846 37.6969 51.0352C38.355 51.0757 39.0178 51.0433 39.6793 51.0433C39.7313 50.9778 39.7833 50.9123 39.8346 50.8462C38.5312 49.9741 38.6979 49.0844 40.0432 48.0686C39.1231 48.0686 38.6021 48.0693 38.081 48.0686C36.648 48.0652 36.5616 47.9761 36.5568 46.5012C36.5555 46.0267 36.5568 45.5529 36.5568 45.0507C35.9649 45.3558 35.5281 45.7662 35.111 45.7453C34.6614 45.7237 34.2315 45.2991 33.6672 44.9791C33.6672 45.754 33.6604 46.4344 33.6685 47.1141C33.6766 47.7797 33.3688 48.0909 32.6932 48.0706C31.9973 48.051 31.3 48.0666 30.6027 48.0666C30.5426 48.128 30.4832 48.1901 30.4232 48.2508C31.7664 49.1256 31.5666 50.0166 30.2463 51.0446C31.3074 51.0446 31.9844 51.0608 32.6601 51.0399C33.3844 51.0169 33.6888 51.3598 33.6712 52.0645C33.6544 52.7152 33.6679 53.3673 33.6679 54.1496Z" fill="#BD2957"/>
</svg>
