<svg width="72" height="72" viewBox="0 0 72 72" fill="none" xmlns="http://www.w3.org/2000/svg">
<path fill-rule="evenodd" clip-rule="evenodd" d="M9.00056 55.2288C9.4132 54.8001 9.79807 54.3386 10.2435 53.9476C13.1603 51.3896 16.1015 48.8587 19 46.2807C19.331 45.9863 19.5654 45.4748 19.6476 45.0283C19.8959 43.6649 20.4745 42.5497 21.5925 41.6889C25.3174 38.8226 29.0212 35.9297 32.7333 33.0456C33.0804 32.7757 33.4214 32.498 33.8113 32.187C33.4514 31.701 33.1209 31.2451 32.7805 30.7963C32.3667 30.2515 32.3801 29.7395 32.9266 29.3085C34.3133 28.215 35.7073 27.1298 37.1113 26.0574C37.6572 25.6397 38.1659 25.7336 38.5897 26.2767C38.9185 26.6983 39.2478 27.1192 39.6604 27.6474C40.7401 26.8088 41.7986 25.9863 42.8577 25.1643C43.5053 24.6617 44.1506 24.1552 44.8026 23.6581C45.7279 22.9523 46.0039 22.9917 46.7509 23.9103C46.9458 24.1502 47.1458 24.3862 47.3729 24.66C50.8273 21.9737 54.2351 19.3229 57.7389 16.5983C57.2135 15.9051 56.7093 15.2398 56.2044 14.575C55.4986 13.6459 55.533 13.3388 56.4182 12.6218C56.9786 12.168 57.5357 11.7099 58.0944 11.2539C58.3465 11.2539 58.5992 11.2539 58.8519 11.2539C59.5866 12.1375 60.3214 13.0217 61.0523 13.9014C62.4129 13.1627 62.4246 13.1677 63.4204 14.4317C63.7853 14.8949 64.1657 15.3459 64.5389 15.803C64.5389 16.0557 64.5389 16.3083 64.5389 16.561C61.837 18.6881 59.1346 20.8152 56.4327 22.9434C56.1628 23.1561 55.8979 23.3738 55.6385 23.5832C56.3749 24.9844 56.3694 24.9966 55.0887 25.9896C53.7214 27.0504 52.359 28.1167 51.01 29.168C51.692 30.6381 51.6893 30.6347 50.4186 31.6222C46.9764 34.2946 43.5381 36.971 40.0992 39.6484C39.9026 39.8012 39.7193 39.9717 39.4849 40.1727C41.4504 42.0354 43.7957 42.9496 46.3849 43.2806C47.3496 43.4039 48.3354 43.3833 49.3111 43.3939C50.067 43.4016 50.4436 43.7293 50.3497 44.4974C50.1198 46.3773 49.8649 48.2534 49.6438 50.1339C49.5433 50.9908 48.9379 51.088 48.2776 51.1152C44.1773 51.2818 40.3074 50.4787 36.7542 48.3556C36.4893 48.1978 36.2227 48.0423 35.83 47.8118C35.9517 49.2203 34.9537 49.8006 34.0584 50.3132C32.2473 51.3501 31.5609 52.6658 32.4595 54.6746C32.971 55.8175 32.6083 56.6806 31.5109 57.3676C30.499 58.0007 29.6132 58.8332 28.6552 59.5552C27.7099 60.2661 27.0768 60.0195 26.8586 58.8521C26.3948 56.3718 25.9511 53.8887 25.4951 51.4079C25.439 51.1019 25.359 50.8009 25.2291 50.2283C24.8359 50.6226 24.5421 50.8531 24.3266 51.1424C21.6692 54.7146 19.0295 58.2995 16.3665 61.8683C16.0532 62.2876 15.6284 62.6247 15.2552 63.0002C15.1285 63.0002 15.0025 63.0002 14.8764 63.0002C14.6387 62.7591 14.3743 62.5387 14.1683 62.2732C12.4394 60.0561 10.7211 57.8302 9 55.6082C9.00056 55.4815 9.00056 55.3555 9.00056 55.2288ZM35.0036 33.7187C34.8565 33.7648 34.787 33.7681 34.7421 33.8026C30.6784 36.9565 26.592 40.0822 22.5833 43.3044C22.0201 43.7565 21.6008 44.6645 21.5409 45.3976C21.4698 46.2718 21.2504 46.8877 20.5562 47.3886C20.1224 47.7019 19.7426 48.0879 19.3383 48.4411C16.6525 50.7836 13.9667 53.1262 11.2265 55.516C12.5238 57.1821 13.7884 58.8065 15.0947 60.4827C15.3468 60.1583 15.5051 59.9634 15.6539 59.7623C18.1903 56.339 20.7317 52.9202 23.2531 49.4868C23.6541 48.9415 24.0917 48.6621 24.8026 48.5927C25.3879 48.5355 26.0144 48.2361 26.4937 47.8735C29.0862 45.9141 31.6398 43.9009 34.2061 41.906C35.6734 40.7653 37.1402 39.624 38.6819 38.4249C38.2231 37.8468 37.8049 37.3203 37.3629 36.7627C35.1114 38.5132 32.946 40.1994 30.7795 41.8838C29.3094 43.0268 27.8549 44.1908 26.3515 45.2882C26.0799 45.4871 25.5784 45.5076 25.233 45.4171C25.033 45.3654 24.7704 44.8878 24.8248 44.6745C24.9148 44.3186 25.1736 43.9415 25.4685 43.7093C28.7929 41.0957 32.1379 38.5077 35.4763 35.9113C35.719 35.7225 35.9489 35.5187 36.2349 35.2793C35.7862 34.7106 35.3852 34.2019 35.0036 33.7187ZM40.1342 37.297C43.2126 34.9028 46.2322 32.553 49.2945 30.1704C48.0177 28.5299 46.8059 26.9737 45.5652 25.3804C42.4751 27.7829 39.4716 30.1177 36.4037 32.503C37.665 34.1241 38.8757 35.6797 40.1342 37.297ZM28.4419 57.3859C29.2344 56.7761 29.9109 56.2813 30.5496 55.7414C30.6734 55.637 30.7228 55.3455 30.6862 55.165C30.2241 52.8596 29.7398 50.5587 29.2317 48.1156C28.5147 48.666 27.8888 49.1281 27.2895 49.6235C27.1757 49.7173 27.1007 49.9561 27.1268 50.1061C27.5439 52.4792 27.9799 54.849 28.4419 57.3859ZM36.7697 42.2465C39.9731 45.4365 43.8468 46.5312 48.2332 46.4962C48.3054 46.0896 48.3676 45.7336 48.4514 45.2605C44.4205 45.2021 40.8706 44.0647 37.9504 41.3168C37.5295 41.6478 37.1874 41.9171 36.7697 42.2465ZM47.9921 48.2484C43.1032 48.3406 38.7985 46.9249 35.2963 43.3805C34.9864 43.6321 34.726 43.8448 34.4466 44.0714C34.5555 44.2302 34.6088 44.3463 34.6949 44.428C38.227 47.7846 42.4823 49.2808 47.3024 49.3441C48.1104 49.3541 47.9949 48.8354 47.9921 48.2484ZM52.6395 22.8878C51.2177 23.9964 49.8676 25.0494 48.4725 26.1368C48.9646 26.7466 49.3728 27.2525 49.7999 27.7818C51.2083 26.6821 52.5434 25.6397 53.933 24.554C53.4864 23.978 53.0893 23.466 52.6395 22.8878ZM54.1479 21.7127C54.1856 21.8176 54.224 21.9226 54.2612 22.0276C54.4478 21.9759 54.6733 21.9748 54.8149 21.8654C57.1913 20.0355 59.5611 18.1961 61.9198 16.3422C62.0636 16.2289 62.1014 15.9812 62.1886 15.7957C62.1125 15.7441 62.0364 15.6924 61.9598 15.6402C59.3562 17.6646 56.752 19.6883 54.1479 21.7127ZM37.4001 27.7435C36.3715 28.5465 35.4596 29.2591 34.4883 30.0183C34.7804 30.3904 35.0197 30.6958 35.2935 31.0457C36.3004 30.2626 37.2307 29.5384 38.1943 28.7892C37.9044 28.4077 37.68 28.1128 37.4001 27.7435ZM32.8288 45.3054C32.3295 45.6998 31.898 46.0402 31.4665 46.3812C31.4565 46.4834 31.4476 46.585 31.4382 46.6878C32.1368 46.8688 32.8355 47.0504 33.7752 47.2953C33.3908 46.4851 33.1276 45.933 32.8288 45.3054ZM58.0799 13.7087C58.9719 15.3142 59.0202 15.3542 59.5833 15.0665C59.0707 14.6017 58.9158 13.7725 58.0799 13.7087ZM31.4792 50.0278C31.9741 49.6412 32.3068 49.3802 32.7333 49.0459C32.1685 48.9131 31.7414 48.8132 31.2349 48.6943C31.3193 49.1531 31.3832 49.5024 31.4792 50.0278Z" fill="#271F22"/>
<path fill-rule="evenodd" clip-rule="evenodd" d="M20.7525 11.2517C21.084 11.7332 21.4667 12.1875 21.7377 12.7006C22.4724 14.0941 23.1761 15.5047 23.8575 16.9254C24.0958 17.4219 24.3718 17.6973 24.9677 17.7678C26.6883 17.9717 28.4044 18.2288 30.1083 18.5404C30.5481 18.6209 31.1773 18.9036 31.2812 19.2318C31.3856 19.5628 31.0368 20.1537 30.7264 20.4786C29.5718 21.6877 28.3683 22.8512 27.147 23.9936C26.6855 24.4251 26.5078 24.8622 26.6261 25.4875C26.9382 27.1281 27.2436 28.7714 27.4702 30.4248C27.5358 30.9035 27.3258 31.42 27.242 31.9187C26.7477 31.8354 26.2018 31.8582 25.7691 31.6483C24.238 30.908 22.7607 30.0549 21.2245 29.3224C20.8724 29.1541 20.2993 29.1513 19.9505 29.3224C18.3666 30.0999 16.8415 30.9968 15.2609 31.7804C14.8911 31.9637 14.2552 32.0537 13.9797 31.8554C13.7148 31.6649 13.6326 31.029 13.6887 30.6181C13.9314 28.8398 14.2846 27.0764 14.5217 25.2976C14.5701 24.9349 14.4034 24.424 14.1502 24.1607C12.9034 22.8656 11.5705 21.6532 10.3237 20.3581C10.0399 20.0626 9.79052 19.5123 9.87216 19.1585C9.93491 18.8853 10.5186 18.6226 10.9063 18.5531C12.6424 18.2427 14.3984 18.0372 16.1318 17.7112C16.5155 17.639 16.9765 17.3097 17.1625 16.9681C18.0072 15.4192 18.7514 13.8153 19.5684 12.2508C19.7628 11.8787 20.1016 11.5816 20.3737 11.25C20.4998 11.2517 20.6258 11.2517 20.7525 11.2517ZM15.4598 29.645C16.7499 28.9803 17.9184 28.4921 18.9597 27.8095C20.0682 27.0826 21.0157 27.1586 22.0959 27.8295C23.1467 28.4821 24.283 28.9969 25.5714 29.6706C25.3115 28.0911 25.1488 26.7493 24.855 25.4364C24.6395 24.4712 24.8144 23.7625 25.567 23.0794C26.5522 22.1853 27.428 21.1706 28.4827 20.071C26.8238 19.8216 25.4043 19.5578 23.9725 19.4134C23.2133 19.3368 22.7823 19.0247 22.4713 18.346C21.8526 16.992 21.1668 15.6691 20.422 14.1579C19.6623 15.6991 18.9703 17.0381 18.3427 18.4054C18.0611 19.0185 17.6857 19.319 16.9976 19.3968C15.5136 19.5645 14.0397 19.8233 12.398 20.0699C13.5743 21.2573 14.595 22.3202 15.6547 23.3421C16.1506 23.8197 16.3733 24.2835 16.2234 25.0099C15.9196 26.4766 15.7291 27.9662 15.4598 29.645Z" fill="#BD2957"/>
</svg>
