<svg width="72" height="72" viewBox="0 0 72 72" fill="none" xmlns="http://www.w3.org/2000/svg">
<path fill-rule="evenodd" clip-rule="evenodd" d="M35.3952 11.25C36.5058 11.6732 37.7177 11.9353 38.7071 12.5527C41.0185 13.9947 42.1478 16.2012 42.195 18.9252C42.2284 20.8386 42.2016 22.7526 42.2016 24.6574C43.117 25.1856 45.1354 24.0411 44.7314 26.4949C37.7481 26.4949 30.7811 26.4949 23.734 26.4949C23.734 37.7891 23.734 48.9709 23.734 60.2778C25.245 60.2778 26.7534 60.2778 28.3126 60.2778C28.3126 60.8724 28.3126 61.3423 28.3126 61.8527C28.1712 61.8801 28.0495 61.9231 27.9284 61.9237C23.4795 61.9287 19.0291 61.9231 14.5797 61.9379C13.8458 61.9404 13.4834 61.6413 13.5016 60.9018C13.5062 60.7396 13.5006 60.5769 13.5006 60.4147C13.5001 49.0794 13.4996 37.744 13.5006 26.4092C13.5011 24.9185 13.5974 24.8283 15.1155 24.8217C15.8621 24.8186 16.6083 24.808 17.3554 24.7963C17.4152 24.7953 17.475 24.7563 17.6757 24.6853C17.6757 22.9655 17.6357 21.1929 17.6925 19.4234C17.7224 18.4918 17.7903 17.5236 18.0696 16.6447C18.9688 13.8118 20.9385 12.0919 23.8434 11.4457C24.0599 11.398 24.2692 11.3159 24.4821 11.25C25.5866 11.25 26.6906 11.25 27.7951 11.25C29.224 11.8755 30.6534 11.8714 32.0822 11.25C33.1867 11.25 34.2912 11.25 35.3952 11.25ZM21.8747 58.6776C21.8747 48.3829 21.8747 38.3726 21.8747 28.1128C21.1104 29.0181 20.4869 29.7435 19.8776 30.481C18.6611 31.9545 18.4442 31.959 17.2449 30.5129C16.6184 29.7577 15.9853 29.008 15.2169 28.0915C15.2169 38.3873 15.2169 48.4153 15.2169 58.6791C16.1075 57.6198 16.8445 56.7281 17.5987 55.8512C18.323 55.0093 18.7564 55.0053 19.4843 55.8436C20.2416 56.718 20.9765 57.6116 21.8747 58.6776ZM25.2176 24.7593C25.5881 20.7474 24.1785 16.4085 27.8103 13.1057C26.8254 13.0013 25.9612 12.9668 25.1005 13.0073C22.2285 13.1442 19.8036 15.1712 19.5071 18.0229C19.2775 20.2283 19.461 22.4769 19.461 24.7598C21.3972 24.7593 23.294 24.7593 25.2176 24.7593ZM32.0047 13.1797C34.2355 15.2031 34.7398 17.7005 34.6131 20.4377C34.5477 21.8564 34.6019 23.2803 34.6019 24.7614C36.5904 24.7614 38.4877 24.7614 40.425 24.7614C40.425 22.4698 40.6323 20.2136 40.3778 18.0113C39.9541 14.342 36.2336 12.2298 32.0047 13.1797ZM32.8324 24.7614C32.8324 22.4738 32.9444 20.2395 32.7944 18.0224C32.6885 16.4567 31.7908 15.1869 30.5358 14.1975C30.0983 13.8528 29.7734 13.8772 29.3426 14.2097C28.0728 15.1905 27.1954 16.4708 27.09 18.0356C26.941 20.2506 27.0525 22.4829 27.0525 24.7614C28.9974 24.7614 30.8911 24.7614 32.8324 24.7614ZM16.1967 60.2266C17.8349 60.2266 19.2597 60.2266 20.8904 60.2266C20.0505 59.2108 19.3241 58.3339 18.5516 57.3993C17.7786 58.3274 17.0614 59.188 16.1967 60.2266ZM18.5506 29.3821C19.3322 28.4322 20.0393 27.573 20.828 26.6135C19.2384 26.6135 17.8212 26.6135 16.2408 26.6135C17.0579 27.5923 17.7594 28.4342 18.5506 29.3821Z" fill="#271F22"/>
<path fill-rule="evenodd" clip-rule="evenodd" d="M30.5043 43.4653C28.7895 43.2509 28.7895 43.2509 28.789 41.6593C28.7885 39.8406 28.8199 38.0214 28.7763 36.2038C28.755 35.3147 29.0992 34.9862 29.9761 34.9989C32.2484 35.0314 34.5223 35.0096 36.7956 35.0091C37.1373 35.0091 37.4799 35.0091 37.8591 35.0091C36.8925 31.7245 37.2518 30.0437 39.108 28.8525C40.8213 27.7536 42.7145 28.0572 44.8069 29.8009C45.7628 28.8469 46.8769 28.0724 48.2927 28.2625C49.128 28.3745 50.0272 28.6533 50.711 29.1267C52.4455 30.328 52.7213 32.2582 51.6451 34.9442C52.0187 34.9675 52.3487 35.006 52.6782 35.0065C54.9186 35.0116 57.1595 35.006 59.4004 35.0111C60.661 35.0136 60.7431 35.0942 60.7472 36.3229C60.7527 38.1416 60.7497 39.9597 60.7482 41.7784C60.7472 43.2874 60.7462 43.2874 59.1317 43.4334C59.1317 43.7948 59.1317 44.1709 59.1317 44.5465C59.1317 49.8079 59.1323 55.0683 59.1312 60.3297C59.1307 61.8037 59.0349 61.9025 57.6081 61.903C49.0352 61.9035 40.4619 61.9035 31.8885 61.9025C30.555 61.9025 30.5058 61.8564 30.5053 60.5415C30.5027 55.2482 30.5038 49.9544 30.5038 44.6615C30.5043 44.2763 30.5043 43.8931 30.5043 43.4653ZM32.1749 43.4298C32.1303 43.5738 32.0791 43.6635 32.0791 43.7537C32.0715 49.046 32.0766 54.3384 32.0553 59.6307C32.0528 60.3018 32.4162 60.3474 32.9216 60.3449C35.1295 60.3363 37.338 60.3069 39.5449 60.3596C40.3869 60.3798 40.5658 60.0656 40.5612 59.289C40.5313 54.3216 40.547 49.3537 40.5435 44.3863C40.5435 44.0741 40.506 43.7623 40.4842 43.4298C37.6614 43.4298 34.9197 43.4298 32.1749 43.4298ZM49.057 60.277C51.8565 60.277 54.5977 60.277 57.381 60.277C57.381 54.6187 57.381 49.0263 57.381 43.4359C54.5627 43.4359 51.82 43.4359 49.057 43.4359C49.057 49.0724 49.057 54.6425 49.057 60.277ZM42.201 43.4131C42.201 48.9366 42.1959 54.346 42.2218 59.7554C42.2228 59.947 42.5239 60.2993 42.6922 60.3038C44.2037 60.3474 45.7177 60.3292 47.248 60.3292C47.248 54.6075 47.248 49.0207 47.248 43.4131C45.5631 43.4131 43.9533 43.4131 42.201 43.4131ZM59.185 41.6806C59.185 40.1032 59.2032 38.6211 59.1606 37.14C59.1556 36.9605 58.8256 36.6402 58.6431 36.6377C55.8918 36.6047 53.1404 36.6037 50.3896 36.6331C50.1935 36.6351 49.8371 36.9296 49.832 37.0959C49.7885 38.6054 49.8062 40.1164 49.8062 41.6806C52.9635 41.6806 55.9947 41.6806 59.185 41.6806ZM39.6772 36.6138C36.711 36.6138 33.8654 36.6037 31.0198 36.6346C30.8271 36.6366 30.4779 36.9372 30.4728 37.1065C30.4298 38.616 30.448 40.127 30.448 41.6608C33.6008 41.6608 36.6218 41.6608 39.6772 41.6608C39.6772 39.9765 39.6772 38.3676 39.6772 36.6138ZM48.1457 41.6786C48.1457 40.7434 48.1457 39.9359 48.1457 39.128C48.1457 36.6062 48.1457 36.6062 45.6067 36.6062C44.2265 36.6062 42.8462 36.6062 41.4741 36.6062C41.4741 38.4072 41.4741 40.0408 41.4741 41.6786C43.7079 41.6786 45.8647 41.6786 48.1457 41.6786ZM43.9893 33.4403C43.9979 33.4398 44.006 33.4393 44.0146 33.4387C43.9842 32.9552 44.0095 32.4605 43.9147 31.9906C43.6375 30.62 42.5325 29.7897 41.1888 29.8865C39.9586 29.9752 38.9413 30.9986 38.8673 32.2222C38.7856 33.5781 39.6063 34.6624 40.9921 34.9168C41.5897 35.0263 42.2203 34.9416 42.8265 35.0182C43.7764 35.1388 44.1408 34.7551 43.9923 33.828C43.9715 33.7018 43.9893 33.5695 43.9893 33.4403ZM47.1684 35.0065C47.1704 35.0227 47.1719 35.0395 47.174 35.0562C47.6854 35.0009 48.2085 34.9954 48.7063 34.8803C50.0596 34.5681 50.8154 33.4534 50.6648 32.0702C50.5376 30.9049 49.5046 29.9464 48.3099 29.885C46.993 29.8176 45.8911 30.6372 45.6746 31.9541C45.5499 32.7129 45.594 33.4981 45.5484 34.271C45.5165 34.8134 45.7598 35.043 46.295 35.0101C46.585 34.9918 46.8769 35.0065 47.1684 35.0065Z" fill="#BD2957"/>
</svg>
