<svg width="112" height="16" viewBox="0 0 112 16" fill="none" xmlns="http://www.w3.org/2000/svg">
<path d="M1.55664 6.89127C1.34781 6.69815 1.46125 6.34902 1.74371 6.31553L5.74609 5.84099C5.86122 5.82734 5.96121 5.75481 6.00977 5.64954L7.69792 1.98963C7.81705 1.73134 8.18425 1.73131 8.30339 1.9896L9.99154 5.64959C10.0401 5.75486 10.1394 5.82735 10.2546 5.841L14.2572 6.31553C14.5396 6.34902 14.653 6.69817 14.4442 6.89129L11.4853 9.62778C11.4002 9.70649 11.3622 9.82381 11.3848 9.93752L12.1701 13.8907C12.2255 14.1697 11.9286 14.3855 11.6804 14.2465L8.16352 12.2779C8.06236 12.2213 7.93914 12.2212 7.83798 12.2778L4.32072 14.2466C4.07252 14.3855 3.77529 14.1697 3.83073 13.8908L4.61625 9.93747C4.63884 9.82377 4.60089 9.70653 4.51578 9.62782L1.55664 6.89127Z" fill="#BD2957" stroke="#BD2957" stroke-width="1.4" stroke-linecap="round" stroke-linejoin="round"/>
<path d="M25.5566 6.89127C25.3478 6.69815 25.4612 6.34902 25.7437 6.31553L29.7461 5.84099C29.8612 5.82734 29.9612 5.75481 30.0098 5.64954L31.6979 1.98963C31.8171 1.73134 32.1842 1.73131 32.3034 1.9896L33.9915 5.64959C34.0401 5.75486 34.1394 5.82735 34.2546 5.841L38.2572 6.31553C38.5396 6.34902 38.653 6.69817 38.4442 6.89129L35.4853 9.62778C35.4002 9.70649 35.3622 9.82381 35.3848 9.93752L36.1701 13.8907C36.2255 14.1697 35.9286 14.3855 35.6804 14.2465L32.1635 12.2779C32.0624 12.2213 31.9391 12.2212 31.838 12.2778L28.3207 14.2466C28.0725 14.3855 27.7753 14.1697 27.8307 13.8908L28.6162 9.93747C28.6388 9.82377 28.6009 9.70653 28.5158 9.62782L25.5566 6.89127Z" fill="#BD2957" stroke="#BD2957" stroke-width="1.4" stroke-linecap="round" stroke-linejoin="round"/>
<path d="M49.5566 6.89127C49.3478 6.69815 49.4612 6.34902 49.7437 6.31553L53.7461 5.84099C53.8612 5.82734 53.9612 5.75481 54.0098 5.64954L55.6979 1.98963C55.8171 1.73134 56.1842 1.73131 56.3034 1.9896L57.9915 5.64959C58.0401 5.75486 58.1394 5.82735 58.2546 5.841L62.2572 6.31553C62.5396 6.34902 62.653 6.69817 62.4442 6.89129L59.4853 9.62778C59.4002 9.70649 59.3622 9.82381 59.3848 9.93752L60.1701 13.8907C60.2255 14.1697 59.9286 14.3855 59.6804 14.2465L56.1635 12.2779C56.0624 12.2213 55.9391 12.2212 55.838 12.2778L52.3207 14.2466C52.0725 14.3855 51.7753 14.1697 51.8307 13.8908L52.6162 9.93747C52.6388 9.82377 52.6009 9.70653 52.5158 9.62782L49.5566 6.89127Z" fill="#BD2957" stroke="#BD2957" stroke-width="1.4" stroke-linecap="round" stroke-linejoin="round"/>
<path d="M73.5566 6.89127C73.3478 6.69815 73.4612 6.34902 73.7437 6.31553L77.7461 5.84099C77.8612 5.82734 77.9612 5.75481 78.0098 5.64954L79.6979 1.98963C79.8171 1.73134 80.1842 1.73131 80.3034 1.9896L81.9915 5.64959C82.0401 5.75486 82.1394 5.82735 82.2546 5.841L86.2572 6.31553C86.5396 6.34902 86.653 6.69817 86.4442 6.89129L83.4853 9.62778C83.4002 9.70649 83.3622 9.82381 83.3848 9.93752L84.1701 13.8907C84.2255 14.1697 83.9286 14.3855 83.6804 14.2465L80.1635 12.2779C80.0624 12.2213 79.9391 12.2212 79.838 12.2778L76.3207 14.2466C76.0725 14.3855 75.7753 14.1697 75.8307 13.8908L76.6162 9.93747C76.6388 9.82377 76.6009 9.70653 76.5158 9.62782L73.5566 6.89127Z" fill="#BD2957" stroke="#BD2957" stroke-width="1.4" stroke-linecap="round" stroke-linejoin="round"/>
<path d="M97.5566 6.89127C97.3478 6.69815 97.4612 6.34902 97.7437 6.31553L101.746 5.84099C101.861 5.82734 101.961 5.75481 102.01 5.64954L103.698 1.98963C103.817 1.73134 104.184 1.73131 104.303 1.9896L105.992 5.64959C106.04 5.75486 106.139 5.82735 106.255 5.841L110.257 6.31553C110.54 6.34902 110.653 6.69817 110.444 6.89129L107.485 9.62778C107.4 9.70649 107.362 9.82381 107.385 9.93752L108.17 13.8907C108.226 14.1697 107.929 14.3855 107.68 14.2465L104.164 12.2779C104.062 12.2213 103.939 12.2212 103.838 12.2778L100.321 14.2466C100.073 14.3855 99.7753 14.1697 99.8307 13.8908L100.616 9.93747C100.639 9.82377 100.601 9.70653 100.516 9.62782L97.5566 6.89127Z" fill="#BD2957" stroke="#BD2957" stroke-width="1.4" stroke-linecap="round" stroke-linejoin="round"/>
</svg>
