<svg width="71" height="70" viewBox="0 0 71 70" fill="none" xmlns="http://www.w3.org/2000/svg">
<path fill-rule="evenodd" clip-rule="evenodd" d="M60.6119 31.292H10.7246L10.7246 62.9772H60.6119V31.292ZM10.7246 29.2695C9.60763 29.2695 8.70215 30.175 8.70215 31.292V62.9772C8.70215 64.0942 9.60764 64.9997 10.7246 64.9997H60.6119C61.7289 64.9997 62.6344 64.0942 62.6344 62.9772V31.292C62.6344 30.175 61.7289 29.2695 60.6119 29.2695H10.7246Z" fill="#F5F5F5"/>
<path fill-rule="evenodd" clip-rule="evenodd" d="M61.9619 19.1553H9.37793C8.26095 19.1553 7.35547 20.0608 7.35547 21.1777V27.2451C7.35547 28.3621 8.26095 29.2676 9.37793 29.2676H61.9619C63.0789 29.2676 63.9843 28.3621 63.9843 27.2451V21.1777C63.9843 20.0608 63.0789 19.1553 61.9619 19.1553ZM9.37793 17.1328C7.14398 17.1328 5.33301 18.9438 5.33301 21.1777V27.2451C5.33301 29.4791 7.14398 31.29 9.37793 31.29H61.9619C64.1958 31.29 66.0068 29.4791 66.0068 27.2451V21.1777C66.0068 18.9438 64.1958 17.1328 61.9619 17.1328H9.37793Z" fill="#F5F5F5"/>
<path fill-rule="evenodd" clip-rule="evenodd" d="M34.413 7.94318C36.0006 10.2971 36.7049 13.8129 36.1632 17.6477C36.089 18.1731 35.5675 18.5434 34.9984 18.4749C34.4294 18.4064 34.0283 17.925 34.1025 17.3996C34.5998 13.8795 33.9187 10.8401 32.6489 8.95728C32.0174 8.02093 31.2725 7.41463 30.5034 7.12534C29.7566 6.84448 28.8984 6.82744 27.9223 7.21363C23.7889 8.84899 22.9694 14.1446 26.4415 16.783C26.8846 17.1197 26.9482 17.7242 26.5835 18.1333C26.2188 18.5424 25.5639 18.601 25.1209 18.2643C20.4464 14.7122 21.5389 7.65181 27.1037 5.45015C28.5522 4.87707 29.9885 4.86002 31.2874 5.34854C32.564 5.82864 33.6158 6.76114 34.413 7.94318Z" fill="#F5F5F5"/>
<path fill-rule="evenodd" clip-rule="evenodd" d="M36.8333 7.94318C35.3213 10.2971 34.6505 13.8129 35.1664 17.6477C35.2371 18.1731 35.7338 18.5434 36.2757 18.4749C36.8177 18.4064 37.1997 17.925 37.129 17.3996C36.6554 13.8795 37.304 10.8401 38.5134 8.95728C39.1148 8.02093 39.8242 7.41463 40.5567 7.12534C41.2679 6.84448 42.0853 6.82744 43.0149 7.21363C46.9515 8.84899 47.7319 14.1446 44.4251 16.783C44.0032 17.1197 43.9427 17.7242 44.29 18.1333C44.6373 18.5424 45.261 18.601 45.6829 18.2643C50.1348 14.7122 49.0943 7.65181 43.7945 5.45015C42.415 4.87707 41.047 4.86002 39.81 5.34854C38.5943 5.82864 37.5925 6.76114 36.8333 7.94318Z" fill="#F5F5F5"/>
<path fill-rule="evenodd" clip-rule="evenodd" d="M53.5272 39.163C53.8642 39.5184 54.1813 39.7954 54.4224 40.1276C54.5852 40.3513 54.7782 40.701 54.706 40.9049C54.64 41.0903 54.2407 41.2324 53.976 41.2555C53.3889 41.3069 52.7934 41.288 52.2026 41.2678C51.7996 41.2541 51.6618 41.4178 51.6764 41.8114C51.6995 42.4239 51.709 43.0402 51.6674 43.6509C51.6523 43.8755 51.5169 44.2271 51.3616 44.2733C51.1507 44.337 50.8237 44.2247 50.6255 44.0798C50.2602 43.8127 49.9525 43.4659 49.5712 43.1058C49.1975 43.4598 48.8733 43.8127 48.4995 44.1001C48.3183 44.2398 47.9979 44.3705 47.8247 44.2998C47.6529 44.2294 47.5047 43.9076 47.4882 43.6849C47.442 43.0747 47.4538 42.4579 47.4764 41.8454C47.4915 41.424 47.341 41.2484 46.9082 41.2663C46.3396 41.2904 45.7658 41.3055 45.2004 41.2564C44.9291 41.2328 44.4817 41.0913 44.4496 40.9346C44.3986 40.6835 44.578 40.3419 44.7478 40.0998C44.9819 39.7666 45.2976 39.491 45.6129 39.1531C45.2811 38.7987 44.9517 38.5066 44.7011 38.1579C44.5426 37.937 44.3864 37.602 44.4454 37.3755C44.4878 37.2131 44.8847 37.0697 45.1334 37.0503C45.7436 37.0036 46.3599 37.0229 46.9729 37.0371C47.3415 37.0456 47.4811 36.8889 47.4736 36.5274C47.4604 35.8918 47.4429 35.2542 47.4887 34.6219C47.5043 34.3996 47.6557 34.0768 47.828 34.0075C48.0031 33.9376 48.3216 34.0707 48.5047 34.2109C48.8671 34.4874 49.1791 34.8305 49.5745 35.2042C49.9346 34.8626 50.2541 34.5039 50.6321 34.2231C50.8288 34.0773 51.1601 33.9692 51.3711 34.0353C51.5249 34.083 51.6542 34.4383 51.6684 34.6644C51.7085 35.2977 51.6943 35.9347 51.6792 36.5699C51.6707 36.9116 51.8132 37.0414 52.1455 37.0352C52.7372 37.0253 53.3328 36.996 53.9189 37.0513C54.2035 37.0782 54.5805 37.2117 54.7084 37.4222C54.7971 37.5689 54.5786 37.9625 54.4163 38.1867C54.1761 38.5198 53.8642 38.8006 53.5272 39.163ZM48.5481 42.3664C48.9544 42.1266 49.2451 41.8213 49.5368 41.8208C49.8539 41.8199 50.1715 42.1021 50.5688 42.3008C50.5688 41.8331 50.5688 41.4027 50.5693 40.9723C50.5698 40.4433 50.7864 40.1536 51.3649 40.189C51.825 40.2173 52.2885 40.1946 52.7509 40.1946C52.7873 40.1489 52.8236 40.1031 52.8595 40.0568C51.9482 39.4471 52.0648 38.8252 53.0053 38.1149C52.3621 38.1149 51.9978 38.1154 51.6334 38.1149C50.6316 38.1126 50.5712 38.0503 50.5679 37.0192C50.5669 36.6874 50.5679 36.3561 50.5679 36.005C50.154 36.2183 49.8487 36.5053 49.5571 36.4906C49.2428 36.4755 48.9422 36.1787 48.5476 35.955C48.5476 36.4968 48.5429 36.9725 48.5486 37.4477C48.5543 37.913 48.3391 38.1305 47.8667 38.1164C47.3801 38.1027 46.8927 38.1135 46.4052 38.1135C46.3632 38.1565 46.3217 38.1999 46.2797 38.2424C47.2188 38.8539 47.0791 39.4769 46.156 40.1956C46.8979 40.1956 47.3712 40.2069 47.8436 40.1923C48.3499 40.1762 48.5627 40.416 48.5505 40.9086C48.5387 41.3636 48.5481 41.8194 48.5481 42.3664Z" fill="#BD2957"/>
<path fill-rule="evenodd" clip-rule="evenodd" d="M53.5292 57.3642C53.8661 57.7196 54.1832 57.9966 54.4244 58.3288C54.5872 58.5525 54.7802 58.9022 54.708 59.106C54.6419 59.2915 54.2427 59.4335 53.9779 59.4567C53.3909 59.5081 52.7954 59.4892 52.2045 59.4689C51.8015 59.4552 51.6637 59.619 51.6783 60.0126C51.7015 60.6251 51.7109 61.2414 51.6694 61.8521C51.6543 62.0767 51.5188 62.4283 51.3636 62.4745C51.1526 62.5382 50.8256 62.4259 50.6274 62.281C50.2622 62.0139 49.9545 61.6671 49.5732 61.307C49.1994 61.6609 48.8752 62.0139 48.5015 62.3013C48.3203 62.441 47.9998 62.5717 47.8266 62.5009C47.6549 62.4306 47.5067 62.1088 47.4902 61.886C47.4439 61.2759 47.4557 60.6591 47.4784 60.0465C47.4935 59.6251 47.3429 59.4496 46.9102 59.4675C46.3415 59.4916 45.7677 59.5067 45.2024 59.4576C44.931 59.434 44.4836 59.2924 44.4516 59.1358C44.4006 58.8847 44.5799 58.543 44.7498 58.301C44.9839 57.9678 45.2996 57.6922 45.6148 57.3543C45.2831 56.9999 44.9537 56.7078 44.7031 56.3591C44.5445 56.1382 44.3883 55.8031 44.4473 55.5766C44.4898 55.4143 44.8867 55.2708 45.1354 55.2515C45.7455 55.2048 46.3618 55.2241 46.9748 55.2383C47.3434 55.2468 47.4831 55.0901 47.4755 54.7286C47.4623 54.093 47.4449 53.4554 47.4906 52.8231C47.5062 52.6008 47.6577 52.278 47.8299 52.2086C48.005 52.1388 48.3236 52.2719 48.5067 52.412C48.8691 52.6886 49.181 53.0316 49.5765 53.4054C49.9365 53.0637 50.256 52.7051 50.634 52.4243C50.8308 52.2785 51.1621 52.1704 51.373 52.2365C51.5269 52.2841 51.6562 52.6395 51.6703 52.8655C51.7104 53.4988 51.6963 54.1359 51.6812 54.7711C51.6727 55.1127 51.8152 55.2425 52.1474 55.2364C52.7392 55.2265 53.3347 55.1972 53.9208 55.2524C54.2054 55.2793 54.5825 55.4129 54.7104 55.6234C54.7991 55.7701 54.5806 56.1637 54.4182 56.3878C54.178 56.721 53.8661 57.0018 53.5292 57.3642ZM48.5501 60.5675C48.9564 60.3278 49.2471 60.0225 49.5387 60.022C49.8558 60.0211 50.1734 60.3033 50.5708 60.5019C50.5708 60.0343 50.5708 59.6039 50.5713 59.1735C50.5717 58.6445 50.7883 58.3548 51.3669 58.3901C51.827 58.4185 52.2904 58.3958 52.7529 58.3958C52.7892 58.35 52.8256 58.3043 52.8614 58.258C51.9502 57.6483 52.0667 57.0263 53.0072 56.3161C52.364 56.3161 51.9997 56.3166 51.6354 56.3161C50.6335 56.3138 50.5731 56.2515 50.5698 55.2203C50.5689 54.8886 50.5698 54.5573 50.5698 54.2062C50.156 54.4195 49.8506 54.7064 49.559 54.6918C49.2447 54.6767 48.9441 54.3799 48.5496 54.1562C48.5496 54.6979 48.5449 55.1736 48.5505 55.6488C48.5562 56.1141 48.341 56.3317 47.8686 56.3175C47.3821 56.3038 46.8946 56.3147 46.4071 56.3147C46.3651 56.3576 46.3236 56.4011 46.2816 56.4435C47.2207 57.0551 47.081 57.678 46.158 58.3968C46.8998 58.3968 47.3731 58.4081 47.8455 58.3934C48.3519 58.3774 48.5647 58.6171 48.5524 59.1098C48.5406 59.5647 48.5501 60.0206 48.5501 60.5675Z" fill="#BD2957"/>
<path fill-rule="evenodd" clip-rule="evenodd" d="M25.8885 47.9287C26.2255 48.284 26.5426 48.561 26.7837 48.8932C26.9466 49.1169 27.1396 49.4666 27.0674 49.6705C27.0013 49.8559 26.6021 49.998 26.3373 50.0211C25.7503 50.0725 25.1547 50.0537 24.5639 50.0334C24.1609 50.0197 24.0231 50.1834 24.0377 50.577C24.0608 51.1895 24.0703 51.8059 24.0288 52.4165C24.0137 52.6411 23.8782 52.9927 23.723 53.039C23.512 53.1027 23.185 52.9903 22.9868 52.8455C22.6215 52.5784 22.3138 52.2315 21.9325 51.8715C21.5588 52.2254 21.2346 52.5784 20.8608 52.8658C20.6796 53.0054 20.3592 53.1362 20.186 53.0654C20.0142 52.9951 19.8661 52.6732 19.8495 52.4505C19.8033 51.8403 19.8151 51.2235 19.8377 50.611C19.8528 50.1896 19.7023 50.014 19.2696 50.032C18.7009 50.056 18.1271 50.0711 17.5617 50.0221C17.2904 49.9985 16.843 49.8569 16.8109 49.7002C16.76 49.4492 16.9393 49.1075 17.1092 48.8654C17.3432 48.5322 17.6589 48.2566 17.9742 47.9188C17.6424 47.5644 17.313 47.2722 17.0625 46.9235C16.9039 46.7027 16.7477 46.3676 16.8067 46.1411C16.8492 45.9787 17.246 45.8353 17.4947 45.8159C18.1049 45.7692 18.7212 45.7886 19.3342 45.8027C19.7028 45.8112 19.8425 45.6545 19.8349 45.2931C19.8217 44.6574 19.8042 44.0199 19.85 43.3875C19.8656 43.1652 20.0171 42.8425 20.1893 42.7731C20.3644 42.7032 20.6829 42.8363 20.866 42.9765C21.2285 43.253 21.5404 43.5961 21.9358 43.9698C22.2959 43.6282 22.6154 43.2695 22.9934 42.9887C23.1902 42.8429 23.5215 42.7349 23.7324 42.8009C23.8862 42.8486 24.0155 43.2039 24.0297 43.43C24.0698 44.0633 24.0557 44.7004 24.0406 45.3355C24.0321 45.6772 24.1746 45.807 24.5068 45.8008C25.0986 45.7909 25.6941 45.7617 26.2802 45.8169C26.5648 45.8438 26.9418 45.9773 27.0697 46.1878C27.1584 46.3346 26.94 46.7281 26.7776 46.9523C26.5374 47.2855 26.2255 47.5662 25.8885 47.9287ZM20.9094 51.132C21.3158 50.8922 21.6065 50.5869 21.8981 50.5865C22.2152 50.5855 22.5328 50.8677 22.9302 51.0664C22.9302 50.5987 22.9302 50.1683 22.9306 49.738C22.9311 49.209 23.1477 48.9192 23.7263 48.9546C24.1864 48.9829 24.6498 48.9603 25.1123 48.9603C25.1486 48.9145 25.1849 48.8687 25.2208 48.8225C24.3095 48.2128 24.4261 47.5908 25.3666 46.8806C24.7234 46.8806 24.3591 46.881 23.9948 46.8806C22.9929 46.8782 22.9325 46.8159 22.9292 45.7848C22.9283 45.453 22.9292 45.1218 22.9292 44.7707C22.5153 44.984 22.21 45.2709 21.9184 45.2563C21.6041 45.2412 21.3035 44.9443 20.909 44.7206C20.909 45.2624 20.9043 45.7381 20.9099 46.2133C20.9156 46.6786 20.7004 46.8961 20.228 46.882C19.7415 46.8683 19.254 46.8791 18.7665 46.8791C18.7245 46.9221 18.683 46.9655 18.641 47.008C19.5801 47.6196 19.4404 48.2425 18.5173 48.9612C19.2592 48.9612 19.7325 48.9725 20.2049 48.9579C20.7112 48.9419 20.9241 49.1816 20.9118 49.6743C20.9 50.1292 20.9094 50.585 20.9094 51.132Z" fill="#BD2957"/>
<mask id="mask0_670_8343" style="mask-type:alpha" maskUnits="userSpaceOnUse" x="8" y="33" width="11" height="12">
<path fill-rule="evenodd" clip-rule="evenodd" d="M17.1249 39.165C17.4618 39.5203 17.7789 39.7974 18.0201 40.1296C18.1829 40.3533 18.3759 40.7029 18.3037 40.9068C18.2376 41.0923 17.8384 41.2343 17.5737 41.2574C16.9866 41.3089 16.3911 41.29 15.8002 41.2697C15.3972 41.256 15.2594 41.4198 15.274 41.8133C15.2972 42.4259 15.3066 43.0422 15.2651 43.6528C15.25 43.8775 15.1145 44.229 14.9593 44.2753C14.7483 44.339 14.4213 44.2267 14.2231 44.0818C13.8579 43.8147 13.5502 43.4679 13.1689 43.1078C12.7951 43.4617 12.4709 43.8147 12.0972 44.1021C11.916 44.2418 11.5955 44.3725 11.4223 44.3017C11.2506 44.2314 11.1024 43.9096 11.0859 43.6868C11.0396 43.0766 11.0514 42.4599 11.0741 41.8473C11.0892 41.4259 10.9386 41.2504 10.5059 41.2683C9.93725 41.2924 9.36341 41.3075 8.79806 41.2584C8.52672 41.2348 8.07935 41.0932 8.04726 40.9365C7.99629 40.6855 8.17562 40.3438 8.34551 40.1017C8.57957 39.7686 8.89528 39.493 9.21051 39.1551C8.87876 38.8007 8.54937 38.5086 8.29879 38.1598C8.14023 37.939 7.98403 37.6039 8.04301 37.3774C8.08549 37.2151 8.48236 37.0716 8.73105 37.0523C9.34123 37.0056 9.95754 37.0249 10.5705 37.0391C10.9391 37.0476 11.0788 36.8909 11.0712 36.5294C11.058 35.8937 11.0406 35.2562 11.0863 34.6238C11.1019 34.4016 11.2534 34.0788 11.4256 34.0094C11.6007 33.9396 11.9193 34.0726 12.1024 34.2128C12.4648 34.4893 12.7767 34.8324 13.1722 35.2062C13.5322 34.8645 13.8517 34.5059 14.2297 34.2251C14.4265 34.0793 14.7578 33.9712 14.9687 34.0373C15.1226 34.0849 15.2519 34.4403 15.266 34.6663C15.3061 35.2996 15.292 35.9367 15.2769 36.5719C15.2684 36.9135 15.4109 37.0433 15.7431 37.0372C16.3349 37.0273 16.9304 36.998 17.5166 37.0532C17.8011 37.0801 18.1782 37.2137 18.3061 37.4241C18.3948 37.5709 18.1763 37.9645 18.0139 38.1886C17.7737 38.5218 17.4618 38.8026 17.1249 39.165ZM12.1458 42.3683C12.5521 42.1286 12.8428 41.8233 13.1344 41.8228C13.4515 41.8218 13.7691 42.104 14.1665 42.3027C14.1665 41.8351 14.1665 41.4047 14.167 40.9743C14.1674 40.4453 14.384 40.1555 14.9626 40.1909C15.4227 40.2192 15.8861 40.1966 16.3486 40.1966C16.3849 40.1508 16.4213 40.105 16.4571 40.0588C15.5459 39.4491 15.6624 38.8271 16.6029 38.1169C15.9597 38.1169 15.5954 38.1174 15.2311 38.1169C14.2292 38.1145 14.1688 38.0522 14.1655 37.0211C14.1646 36.6894 14.1655 36.3581 14.1655 36.007C13.7517 36.2203 13.4464 36.5072 13.1547 36.4926C12.8404 36.4775 12.5398 36.1807 12.1453 35.957C12.1453 36.4987 12.1406 36.9744 12.1462 37.4496C12.1519 37.9149 11.9367 38.1325 11.4643 38.1183C10.9778 38.1046 10.4903 38.1155 10.0028 38.1155C9.96084 38.1584 9.91932 38.2018 9.87732 38.2443C10.8164 38.8559 10.6767 39.4788 9.75368 40.1975C10.4955 40.1975 10.9688 40.2089 11.4412 40.1942C11.9476 40.1782 12.1604 40.4179 12.1481 40.9106C12.1363 41.3655 12.1458 41.8214 12.1458 42.3683Z" fill="#E34D5F"/>
</mask>
<g mask="url(#mask0_670_8343)">
<path d="M10.7275 32.6426H18.8174V44.7773H10.7275V32.6426Z" fill="#BD2957"/>
</g>
<mask id="mask1_670_8343" style="mask-type:alpha" maskUnits="userSpaceOnUse" x="8" y="52" width="11" height="11">
<path fill-rule="evenodd" clip-rule="evenodd" d="M17.1249 57.3681C17.4618 57.7235 17.7789 58.0005 18.0201 58.3327C18.1829 58.5564 18.3759 58.9061 18.3037 59.1099C18.2376 59.2954 17.8384 59.4374 17.5737 59.4606C16.9866 59.512 16.3911 59.4931 15.8002 59.4728C15.3972 59.4591 15.2594 59.6229 15.274 60.0165C15.2972 60.629 15.3066 61.2453 15.2651 61.856C15.25 62.0806 15.1145 62.4322 14.9593 62.4784C14.7483 62.5421 14.4213 62.4298 14.2231 62.2849C13.8579 62.0178 13.5502 61.671 13.1689 61.3109C12.7951 61.6648 12.4709 62.0178 12.0972 62.3052C11.916 62.4449 11.5955 62.5756 11.4223 62.5048C11.2506 62.4345 11.1024 62.1127 11.0859 61.8899C11.0396 61.2798 11.0514 60.663 11.0741 60.0504C11.0892 59.629 10.9386 59.4535 10.5059 59.4714C9.93725 59.4955 9.36341 59.5106 8.79806 59.4615C8.52672 59.4379 8.07935 59.2963 8.04726 59.1397C7.99629 58.8886 8.17562 58.5469 8.34551 58.3049C8.57957 57.9717 8.89528 57.6961 9.21051 57.3582C8.87876 57.0038 8.54937 56.7117 8.29879 56.363C8.14023 56.1421 7.98403 55.8071 8.04301 55.5805C8.08549 55.4182 8.48236 55.2747 8.73105 55.2554C9.34123 55.2087 9.95754 55.228 10.5705 55.2422C10.9391 55.2507 11.0788 55.094 11.0712 54.7325C11.058 54.0969 11.0406 53.4593 11.0863 52.827C11.1019 52.6047 11.2534 52.2819 11.4256 52.2125C11.6007 52.1427 11.9193 52.2758 12.1024 52.4159C12.4648 52.6925 12.7767 53.0355 13.1722 53.4093C13.5322 53.0676 13.8517 52.709 14.2297 52.4282C14.4265 52.2824 14.7578 52.1743 14.9687 52.2404C15.1226 52.288 15.2519 52.6434 15.266 52.8694C15.3061 53.5027 15.292 54.1398 15.2769 54.775C15.2684 55.1167 15.4109 55.2464 15.7431 55.2403C16.3349 55.2304 16.9304 55.2011 17.5166 55.2563C17.8011 55.2832 18.1782 55.4168 18.3061 55.6273C18.3948 55.774 18.1763 56.1676 18.0139 56.3917C17.7737 56.7249 17.4618 57.0057 17.1249 57.3681ZM12.1458 60.5714C12.5521 60.3317 12.8428 60.0264 13.1344 60.0259C13.4515 60.025 13.7691 60.3072 14.1665 60.5058C14.1665 60.0382 14.1665 59.6078 14.167 59.1774C14.1674 58.6484 14.384 58.3587 14.9626 58.3941C15.4227 58.4224 15.8861 58.3997 16.3486 58.3997C16.3849 58.3539 16.4213 58.3082 16.4571 58.2619C15.5459 57.6522 15.6624 57.0302 16.6029 56.32C15.9597 56.32 15.5954 56.3205 15.2311 56.32C14.2292 56.3177 14.1688 56.2554 14.1655 55.2242C14.1646 54.8925 14.1655 54.5612 14.1655 54.2101C13.7517 54.4234 13.4464 54.7103 13.1547 54.6957C12.8404 54.6806 12.5398 54.3838 12.1453 54.1601C12.1453 54.7018 12.1406 55.1775 12.1462 55.6527C12.1519 56.118 11.9367 56.3356 11.4643 56.3214C10.9778 56.3078 10.4903 56.3186 10.0028 56.3186C9.96084 56.3615 9.91932 56.405 9.87732 56.4474C10.8164 57.059 10.6767 57.6819 9.75368 58.4007C10.4955 58.4007 10.9688 58.412 11.4412 58.3974C11.9476 58.3813 12.1604 58.621 12.1481 59.1137C12.1363 59.5686 12.1458 60.0245 12.1458 60.5714Z" fill="#E34D5F"/>
</mask>
<g mask="url(#mask1_670_8343)">
<path d="M10.7275 50.8457H18.8174V62.9805H10.7275V50.8457Z" fill="#BD2957"/>
</g>
<mask id="mask2_670_8343" style="mask-type:alpha" maskUnits="userSpaceOnUse" x="53" y="42" width="11" height="12">
<path fill-rule="evenodd" clip-rule="evenodd" d="M54.3966 47.9248C54.0597 48.2801 53.7426 48.5571 53.5014 48.8893C53.3386 49.113 53.1456 49.4627 53.2178 49.6666C53.2839 49.852 53.6831 49.9941 53.9478 50.0172C54.5349 50.0686 55.1304 50.0498 55.7213 50.0295C56.1243 50.0158 56.2621 50.1795 56.2474 50.5731C56.2243 51.1856 56.2149 51.802 56.2564 52.4126C56.2715 52.6372 56.4069 52.9888 56.5622 53.035C56.7731 53.0988 57.1002 52.9864 57.2984 52.8416C57.6636 52.5745 57.9713 52.2276 58.3526 51.8676C58.7264 52.2215 59.0506 52.5745 59.4243 52.8619C59.6055 53.0015 59.926 53.1323 60.0991 53.0615C60.2709 52.9912 60.4191 52.6693 60.4356 52.4466C60.4819 51.8364 60.4701 51.2196 60.4474 50.6071C60.4323 50.1857 60.5828 50.0101 61.0156 50.0281C61.5842 50.0521 62.1581 50.0672 62.7234 50.0181C62.9948 49.9946 63.4421 49.853 63.4742 49.6963C63.5252 49.4452 63.3459 49.1036 63.176 48.8615C62.9419 48.5283 62.6262 48.2527 62.311 47.9149C62.6427 47.5605 62.9721 47.2683 63.2227 46.9196C63.3813 46.6988 63.5375 46.3637 63.4785 46.1372C63.436 45.9748 63.0391 45.8314 62.7904 45.812C62.1803 45.7653 61.5639 45.7847 60.9509 45.7988C60.5824 45.8073 60.4427 45.6506 60.4502 45.2892C60.4635 44.6535 60.4809 44.016 60.4351 43.3836C60.4196 43.1613 60.2681 42.8385 60.0958 42.7692C59.9208 42.6993 59.6022 42.8324 59.4191 42.9726C59.0567 43.2491 58.7448 43.5922 58.3493 43.9659C57.9892 43.6243 57.6698 43.2656 57.2918 42.9848C57.095 42.839 56.7637 42.731 56.5528 42.797C56.3989 42.8447 56.2696 43.2 56.2555 43.4261C56.2153 44.0594 56.2295 44.6964 56.2446 45.3316C56.2531 45.6733 56.1106 45.8031 55.7784 45.7969C55.1866 45.787 54.591 45.7578 54.0049 45.813C53.7204 45.8399 53.3433 45.9734 53.2154 46.1839C53.1267 46.3307 53.3452 46.7242 53.5075 46.9484C53.7477 47.2816 54.0597 47.5623 54.3966 47.9248ZM59.3757 51.1281C58.9694 50.8883 58.6787 50.583 58.3871 50.5825C58.0699 50.5816 57.7523 50.8638 57.355 51.0625C57.355 50.5948 57.355 50.1644 57.3545 49.7341C57.3541 49.205 57.1375 48.9153 56.5589 48.9507C56.0988 48.979 55.6354 48.9564 55.1729 48.9564C55.1366 48.9106 55.1002 48.8648 55.0644 48.8186C55.9756 48.2089 55.8591 47.5869 54.9185 46.8767C55.5618 46.8767 55.9261 46.8771 56.2904 46.8767C57.2922 46.8743 57.3526 46.812 57.3559 45.7809C57.3569 45.4491 57.3559 45.1179 57.3559 44.7668C57.7698 44.9801 58.0751 45.267 58.3668 45.2524C58.6811 45.2373 58.9817 44.9404 59.3762 44.7167C59.3762 45.2585 59.3809 45.7342 59.3752 46.2094C59.3696 46.6747 59.5848 46.8922 60.0571 46.8781C60.5437 46.8644 61.0312 46.8752 61.5186 46.8752C61.5606 46.9182 61.6022 46.9616 61.6442 47.0041C60.7051 47.6157 60.8448 48.2386 61.7678 48.9573C61.026 48.9573 60.5526 48.9686 60.0803 48.954C59.5739 48.9379 59.3611 49.1777 59.3733 49.6704C59.3851 50.1253 59.3757 50.5811 59.3757 51.1281Z" fill="#E34D5F"/>
</mask>
<g mask="url(#mask2_670_8343)">
<path d="M60.7939 41.4023H52.7041V53.5371H60.7939V41.4023Z" fill="#BD2957"/>
</g>
<mask id="mask3_670_8343" style="mask-type:alpha" maskUnits="userSpaceOnUse" x="26" y="33" width="9" height="12">
<path fill-rule="evenodd" clip-rule="evenodd" d="M27.7691 39.0553C27.5264 39.4031 27.298 39.6742 27.1244 39.9994C27.0071 40.2184 26.8681 40.5606 26.9201 40.7602C26.9677 40.9417 27.2552 41.0807 27.4459 41.1034C27.8687 41.1537 28.2976 41.1352 28.7232 41.1154C29.0134 41.102 29.1127 41.2623 29.1021 41.6475C29.0855 42.247 29.0787 42.8503 29.1086 43.448C29.1195 43.6679 29.217 44.012 29.3288 44.0572C29.4808 44.1196 29.7163 44.0097 29.8591 43.8679C30.1221 43.6064 30.3437 43.2669 30.6184 42.9145C30.8875 43.2609 31.121 43.6064 31.3902 43.8877C31.5207 44.0244 31.7515 44.1524 31.8763 44.0831C32 44.0143 32.1067 43.6993 32.1186 43.4812C32.1519 42.884 32.1434 42.2803 32.1271 41.6807C32.1162 41.2683 32.2246 41.0964 32.5363 41.114C32.9459 41.1375 33.3592 41.1523 33.7663 41.1043C33.9618 41.0812 34.284 40.9426 34.3071 40.7893C34.3438 40.5435 34.2147 40.2091 34.0923 39.9722C33.9237 39.6461 33.6963 39.3763 33.4693 39.0456C33.7082 38.6987 33.9455 38.4128 34.1259 38.0714C34.2401 37.8553 34.3526 37.5273 34.3102 37.3056C34.2796 37.1467 33.9937 37.0063 33.8146 36.9874C33.3751 36.9416 32.9313 36.9606 32.4898 36.9744C32.2243 36.9827 32.1237 36.8294 32.1291 36.4756C32.1387 35.8534 32.1512 35.2294 32.1183 34.6104C32.107 34.3928 31.9979 34.0769 31.8739 34.009C31.7478 33.9406 31.5184 34.0709 31.3865 34.2081C31.1255 34.4788 30.9008 34.8146 30.616 35.1804C30.3566 34.846 30.1265 34.4949 29.8543 34.2201C29.7126 34.0774 29.474 33.9716 29.322 34.0363C29.2112 34.0829 29.1181 34.4307 29.1079 34.652C29.079 35.2718 29.0892 35.8954 29.1001 36.5171C29.1062 36.8516 29.0036 36.9786 28.7643 36.9726C28.3381 36.9629 27.9092 36.9342 27.487 36.9883C27.2821 37.0146 27.0105 37.1453 26.9184 37.3513C26.8545 37.495 27.0119 37.8802 27.1288 38.0996C27.3018 38.4257 27.5264 38.7006 27.7691 39.0553ZM31.3552 42.1907C31.0626 41.956 30.8532 41.6572 30.6432 41.6567C30.4148 41.6558 30.186 41.932 29.8998 42.1265C29.8998 41.6687 29.8998 41.2475 29.8995 40.8262C29.8992 40.3084 29.7432 40.0248 29.3265 40.0595C28.9951 40.0872 28.6613 40.065 28.3282 40.065C28.3021 40.0202 28.2759 39.9754 28.2501 39.9301C28.9064 39.3334 28.8224 38.7246 28.145 38.0294C28.6083 38.0294 28.8707 38.0299 29.1331 38.0294C29.8546 38.0271 29.8981 37.9661 29.9005 36.9569C29.9012 36.6322 29.9005 36.3079 29.9005 35.9642C30.1986 36.173 30.4185 36.4539 30.6286 36.4395C30.8549 36.4248 31.0714 36.1342 31.3556 35.9153C31.3556 36.4455 31.359 36.9111 31.3549 37.3763C31.3508 37.8317 31.5058 38.0447 31.846 38.0308C32.1964 38.0174 32.5475 38.028 32.8986 38.028C32.9289 38.0701 32.9588 38.1125 32.989 38.1541C32.3127 38.7527 32.4133 39.3625 33.0781 40.0659C32.5438 40.0659 32.2029 40.077 31.8627 40.0627C31.498 40.047 31.3447 40.2816 31.3535 40.7639C31.362 41.2091 31.3552 41.6553 31.3552 42.1907Z" fill="#E34D5F"/>
</mask>
<g mask="url(#mask3_670_8343)">
<path d="M28.9268 33.9902H25.556V46.125H28.9268V33.9902Z" fill="#BD2957"/>
</g>
<mask id="mask4_670_8343" style="mask-type:alpha" maskUnits="userSpaceOnUse" x="26" y="52" width="9" height="11">
<path fill-rule="evenodd" clip-rule="evenodd" d="M27.7691 57.2584C27.5264 57.6062 27.298 57.8774 27.1244 58.2025C27.0071 58.4215 26.8681 58.7638 26.9201 58.9633C26.9677 59.1448 27.2552 59.2839 27.4459 59.3065C27.8687 59.3568 28.2976 59.3384 28.7232 59.3185C29.0134 59.3051 29.1127 59.4654 29.1021 59.8506C29.0855 60.4502 29.0787 61.0534 29.1086 61.6511C29.1195 61.871 29.217 62.2151 29.3288 62.2604C29.4808 62.3227 29.7163 62.2128 29.8591 62.071C30.1221 61.8095 30.3437 61.47 30.6184 61.1176C30.8875 61.464 31.121 61.8095 31.3902 62.0908C31.5207 62.2276 31.7515 62.3555 31.8763 62.2862C32 62.2174 32.1067 61.9024 32.1186 61.6844C32.1519 61.0871 32.1434 60.4834 32.1271 59.8839C32.1162 59.4714 32.2246 59.2996 32.5363 59.3171C32.9459 59.3407 33.3592 59.3555 33.7663 59.3074C33.9618 59.2843 34.284 59.1457 34.3071 58.9924C34.3438 58.7467 34.2147 58.4122 34.0923 58.1753C33.9237 57.8492 33.6963 57.5794 33.4693 57.2487C33.7082 56.9018 33.9455 56.6159 34.1259 56.2746C34.2401 56.0584 34.3526 55.7304 34.3102 55.5087C34.2796 55.3498 33.9937 55.2094 33.8146 55.1905C33.3751 55.1448 32.9313 55.1637 32.4898 55.1775C32.2243 55.1859 32.1237 55.0325 32.1291 54.6787C32.1387 54.0565 32.1512 53.4325 32.1183 52.8135C32.107 52.596 31.9979 52.28 31.8739 52.2121C31.7478 52.1438 31.5184 52.274 31.3865 52.4112C31.1255 52.6819 30.9008 53.0177 30.616 53.3835C30.3566 53.0491 30.1265 52.6981 29.8543 52.4232C29.7126 52.2805 29.474 52.1747 29.322 52.2394C29.2112 52.286 29.1181 52.6338 29.1079 52.8551C29.079 53.475 29.0892 54.0985 29.1001 54.7203C29.1062 55.0547 29.0036 55.1817 28.7643 55.1757C28.3381 55.166 27.9092 55.1374 27.487 55.1914C27.2821 55.2177 27.0105 55.3485 26.9184 55.5545C26.8545 55.6981 27.0119 56.0833 27.1288 56.3027C27.3018 56.6288 27.5264 56.9037 27.7691 57.2584ZM31.3552 60.3938C31.0626 60.1592 30.8532 59.8603 30.6432 59.8599C30.4148 59.8589 30.186 60.1351 29.8998 60.3296C29.8998 59.8719 29.8998 59.4506 29.8995 59.0294C29.8992 58.5116 29.7432 58.228 29.3265 58.2626C28.9951 58.2903 28.6613 58.2681 28.3282 58.2681C28.3021 58.2233 28.2759 58.1785 28.2501 58.1333C28.9064 57.5365 28.8224 56.9277 28.145 56.2325C28.6083 56.2325 28.8707 56.233 29.1331 56.2325C29.8546 56.2302 29.8981 56.1693 29.9005 55.16C29.9012 54.8353 29.9005 54.511 29.9005 54.1674C30.1986 54.3761 30.4185 54.657 30.6286 54.6427C30.8549 54.6279 31.0714 54.3373 31.3556 54.1184C31.3556 54.6487 31.359 55.1143 31.3549 55.5794C31.3508 56.0348 31.5058 56.2478 31.846 56.2339C32.1964 56.2205 32.5475 56.2311 32.8986 56.2311C32.9289 56.2732 32.9588 56.3157 32.989 56.3572C32.3127 56.9559 32.4133 57.5656 33.0781 58.2691C32.5438 58.2691 32.2029 58.2801 31.8627 58.2658C31.498 58.2501 31.3447 58.4848 31.3535 58.967C31.362 59.4123 31.3552 59.8585 31.3552 60.3938Z" fill="#E34D5F"/>
</mask>
<g mask="url(#mask4_670_8343)">
<path d="M28.9268 52.1934H25.556V64.3281H28.9268V52.1934Z" fill="#BD2957"/>
</g>
<mask id="mask5_670_8343" style="mask-type:alpha" maskUnits="userSpaceOnUse" x="37" y="42" width="8" height="11">
<path fill-rule="evenodd" clip-rule="evenodd" d="M43.5688 47.8151C43.8114 48.1629 44.0398 48.434 44.2135 48.7592C44.3308 48.9781 44.4698 49.3204 44.4178 49.5199C44.3702 49.7015 44.0827 49.8405 43.892 49.8631C43.4692 49.9135 43.0402 49.895 42.6147 49.8751C42.3245 49.8617 42.2252 50.022 42.2357 50.4073C42.2524 51.0068 42.2592 51.61 42.2293 52.2078C42.2184 52.4276 42.1209 52.7717 42.009 52.817C41.8571 52.8794 41.6216 52.7694 41.4788 52.6276C41.2158 52.3662 40.9942 52.0267 40.7195 51.6743C40.4503 52.0207 40.2168 52.3662 39.9477 52.6475C39.8171 52.7842 39.5864 52.9122 39.4616 52.8429C39.3379 52.774 39.2312 52.459 39.2193 52.241C39.186 51.6438 39.1945 51.0401 39.2108 50.4405C39.2217 50.028 39.1132 49.8562 38.8016 49.8738C38.392 49.8973 37.9787 49.9121 37.5715 49.8641C37.3761 49.841 37.0539 49.7024 37.0308 49.549C36.9941 49.3033 37.1232 48.9689 37.2456 48.7319C37.4142 48.4058 37.6416 48.1361 37.8686 47.8054C37.6297 47.4585 37.3924 47.1726 37.2119 46.8312C37.0977 46.615 36.9852 46.2871 37.0277 46.0654C37.0583 45.9065 37.3442 45.7661 37.5233 45.7471C37.9627 45.7014 38.4066 45.7203 38.8481 45.7342C39.1136 45.7425 39.2142 45.5891 39.2088 45.2353C39.1992 44.6131 39.1867 43.9891 39.2196 43.3702C39.2308 43.1526 39.3399 42.8367 39.464 42.7688C39.5901 42.7004 39.8195 42.8307 39.9514 42.9679C40.2124 43.2385 40.4371 43.5743 40.7219 43.9402C40.9812 43.6057 41.2113 43.2547 41.4836 42.9799C41.6253 42.8371 41.8639 42.7314 42.0158 42.796C42.1266 42.8427 42.2198 43.1905 42.23 43.4117C42.2589 44.0316 42.2487 44.6552 42.2378 45.2769C42.2317 45.6113 42.3343 45.7383 42.5736 45.7323C42.9998 45.7226 43.4287 45.694 43.8509 45.748C44.0558 45.7744 44.3274 45.9051 44.4195 46.1111C44.4834 46.2548 44.326 46.64 44.2091 46.8594C44.0361 47.1855 43.8114 47.4603 43.5688 47.8151ZM39.9827 50.9505C40.2753 50.7158 40.4847 50.417 40.6947 50.4165C40.9231 50.4156 41.1519 50.6918 41.438 50.8862C41.438 50.4285 41.438 50.0072 41.4384 49.586C41.4387 49.0682 41.5947 48.7846 42.0114 48.8192C42.3428 48.8469 42.6766 48.8248 43.0097 48.8248C43.0358 48.78 43.062 48.7352 43.0878 48.6899C42.4315 48.0931 42.5155 47.4843 43.1929 46.7892C42.7296 46.7892 42.4672 46.7896 42.2048 46.7892C41.4832 46.7869 41.4397 46.7259 41.4374 45.7166C41.4367 45.3919 41.4374 45.0677 41.4374 44.724C41.1393 44.9328 40.9194 45.2136 40.7093 45.1993C40.483 45.1845 40.2665 44.894 39.9823 44.675C39.9823 45.2053 39.9789 45.6709 39.983 46.136C39.9871 46.5915 39.8321 46.8044 39.4919 46.7906C39.1415 46.7772 38.7904 46.7878 38.4393 46.7878C38.409 46.8298 38.3791 46.8723 38.3489 46.9139C39.0252 47.5125 38.9246 48.1222 38.2598 48.8257C38.7941 48.8257 39.135 48.8368 39.4752 48.8225C39.8399 48.8068 39.9932 49.0414 39.9844 49.5236C39.9759 49.9689 39.9827 50.4151 39.9827 50.9505Z" fill="#E34D5F"/>
</mask>
<g mask="url(#mask5_670_8343)">
<path d="M42.4111 42.75H45.7819V54.8848H42.4111V42.75Z" fill="#BD2957"/>
</g>
<path fill-rule="evenodd" clip-rule="evenodd" d="M28.9297 63.6526L28.9297 18.4844L30.9521 18.4844L30.9521 63.6526L28.9297 63.6526Z" fill="#F5F5F5"/>
<path fill-rule="evenodd" clip-rule="evenodd" d="M40.3906 63.6526L40.3906 18.4844L42.4131 18.4844L42.4131 63.6526L40.3906 63.6526Z" fill="#F5F5F5"/>
</svg>
