<svg width="71" height="70" viewBox="0 0 71 70" fill="none" xmlns="http://www.w3.org/2000/svg">
<path d="M32.1949 35.4907C31.8284 35.4907 31.5312 35.1936 31.5312 34.8271V33.2276C31.5312 32.861 31.8284 32.5639 32.1949 32.5639H34.561C34.9275 32.5639 35.2247 32.2668 35.2247 31.9002V24.1169C35.2247 23.5778 34.6159 23.2636 34.1765 23.5759L32.5794 24.7109C32.14 25.0232 31.5312 24.709 31.5312 24.1699V22.2206C31.5312 22.006 31.635 21.8046 31.8098 21.6801L35.075 19.3536C35.1875 19.2735 35.3221 19.2305 35.4601 19.2305H38.0918C38.4583 19.2305 38.7555 19.5276 38.7555 19.8942V31.9002C38.7555 32.2668 39.0526 32.5639 39.4191 32.5639H41.0883C41.4549 32.5639 41.752 32.861 41.752 33.2276V34.8271C41.752 35.1936 41.4549 35.4907 41.0883 35.4907H32.1949Z" fill="#BD2957"/>
<path fill-rule="evenodd" clip-rule="evenodd" d="M34.18 1.76499C35.3153 0.745003 37.0369 0.745003 38.1721 1.76499L40.4424 3.80476C40.7133 4.04819 41.0956 4.12423 41.439 4.00301L44.3171 2.9873C45.7562 2.47939 47.3468 3.13822 48.0053 4.51501L49.3221 7.2683C49.4793 7.59688 49.8033 7.81341 50.1671 7.83286L53.2147 7.99584C54.7387 8.07733 55.9561 9.2947 56.0375 10.8187L56.2005 13.8663C56.22 14.23 56.4365 14.5541 56.7651 14.7113L59.5184 16.0281C60.8952 16.6866 61.554 18.2772 61.0461 19.7163L60.0304 22.5944C59.9092 22.9378 59.9852 23.3201 60.2286 23.591L62.2684 25.8613C63.2884 26.9965 63.2884 28.7181 62.2684 29.8534L60.2286 32.1236C59.9852 32.3946 59.9092 32.7768 60.0304 33.1203L61.0461 35.9983C61.554 37.4375 60.8952 39.028 59.5184 39.6865L56.7651 41.0034C56.4365 41.1605 56.22 41.4846 56.2005 41.8483L56.1748 42.3296L65.2969 57.5332C65.9605 58.6391 65.1639 60.046 63.8742 60.046H55.6661L51.5561 67.1699C50.9146 68.2819 49.3074 68.2753 48.675 67.1581L40.1782 52.1472L38.1721 53.9496C37.0369 54.9696 35.3153 54.9696 34.18 53.9496L32.1686 52.1424L23.4039 66.1659C22.7038 67.2861 21.039 67.1787 20.4886 65.9778L17.6178 59.7142H7.8298C6.53176 59.7142 5.73642 58.2909 6.41672 57.1854L16.0688 41.5007C15.9744 41.2861 15.8055 41.1079 15.5871 41.0034L12.8338 39.6865C11.457 39.028 10.7981 37.4375 11.3061 35.9983L12.3218 33.1203C12.443 32.7768 12.3669 32.3946 12.1235 32.1236L10.0837 29.8534C9.06376 28.7181 9.06376 26.9965 10.0837 25.8613L12.1235 23.591C12.367 23.3201 12.443 22.9378 12.3218 22.5944L11.3061 19.7163C10.7981 18.2772 11.457 16.6866 12.8338 16.0281L15.5871 14.7113C15.9156 14.5541 16.1322 14.23 16.1516 13.8663L16.3146 10.8187C16.3961 9.2947 17.6135 8.07733 19.1374 7.99584L22.1851 7.83286C22.5488 7.81341 22.8729 7.59688 23.03 7.2683L24.3469 4.51501C25.0054 3.13822 26.5959 2.47939 28.0351 2.9873L30.9131 4.00301C31.2566 4.12423 31.6388 4.0482 31.9098 3.80476L34.18 1.76499ZM16.3148 44.9L8.42365 57.7231H17.8307C18.4795 57.7231 19.0687 58.1013 19.339 58.691L22.042 64.5883L29.8569 52.0844L28.0351 52.7273C26.5959 53.2352 25.0054 52.5764 24.3469 51.1996L23.03 48.4463C22.8729 48.1177 22.5488 47.9012 22.1851 47.8818L19.1374 47.7188C17.6148 47.6374 16.3982 46.4221 16.3148 44.9ZM41.0606 49.6641L41.0245 49.6004L40.8997 49.671C40.2469 49.7167 39.6152 49.9764 39.1117 50.4288L36.8414 52.4686C36.463 52.8086 35.8891 52.8086 35.5107 52.4686L33.2405 50.4288C32.4277 49.6985 31.2809 49.4704 30.2505 49.8341L27.3725 50.8498C26.8927 51.0191 26.3625 50.7995 26.143 50.3405L24.8262 47.5872C24.3547 46.6015 23.3825 45.9519 22.2914 45.8936L19.2438 45.7306C18.7358 45.7034 18.33 45.2976 18.3028 44.7896L18.1398 41.742C18.0815 40.6508 17.4319 39.6787 16.4461 39.2072L13.6928 37.8903C13.2339 37.6708 13.0143 37.1407 13.1836 36.6609L14.1993 33.7829C14.563 32.7525 14.3349 31.6057 13.6046 30.7929L11.5648 28.5227C11.2248 28.1443 11.2248 27.5704 11.5648 27.192L13.6046 24.9217C14.3349 24.1089 14.563 22.9621 14.1993 21.9317L13.1836 19.0537C13.0143 18.574 13.2339 18.0438 13.6928 17.8243L16.4461 16.5074C17.4319 16.036 18.0815 15.0638 18.1398 13.9726L18.3028 10.925C18.33 10.417 18.7358 10.0112 19.2438 9.98405L22.2914 9.82107C23.3825 9.76272 24.3547 9.11314 24.8262 8.12738L26.143 5.37409C26.3625 4.91516 26.8927 4.69555 27.3724 4.86485L30.2505 5.88057C31.2809 6.24422 32.4277 6.01612 33.2405 5.28582L35.5107 3.24605C35.8891 2.90606 36.463 2.90606 36.8414 3.24605L39.1117 5.28582C39.9245 6.01612 41.0713 6.24422 42.1017 5.88057L44.9797 4.86485C45.4594 4.69555 45.9896 4.91516 46.2091 5.37409L47.526 8.12738C47.9974 9.11314 48.9696 9.76272 50.0607 9.82107L53.1084 9.98405C53.6164 10.0112 54.0222 10.417 54.0493 10.925L54.2123 13.9726C54.2707 15.0638 54.9202 16.036 55.906 16.5074L58.6593 17.8243C59.1182 18.0438 59.3378 18.574 59.1685 19.0537L58.1528 21.9317C57.7892 22.9621 58.0173 24.1089 58.7476 24.9217L60.7873 27.192C61.1273 27.5704 61.1273 28.1443 60.7873 28.5227L58.7476 30.7929C58.0173 31.6057 57.7892 32.7525 58.1528 33.7829L59.1685 36.6609C59.3378 37.1407 59.1182 37.6708 58.6593 37.8903L55.906 39.2072C54.9202 39.6787 54.2707 40.6508 54.2123 41.742L54.0493 44.7896C54.0222 45.2976 53.6164 45.7034 53.1084 45.7306L50.0607 45.8936C48.9696 45.9519 47.9974 46.6015 47.526 47.5872L46.2091 50.3405C45.9896 50.7995 45.4594 51.0191 44.9797 50.8498L42.1017 49.8341C41.7619 49.7142 41.4095 49.6586 41.0606 49.6641ZM42.4145 52.0559L50.1217 65.672L54.0372 58.885C54.3335 58.3714 54.8815 58.055 55.4744 58.055H63.2881L55.8799 45.708C55.4933 46.833 54.4556 47.6524 53.2147 47.7188L50.1671 47.8818C49.8033 47.9012 49.4793 48.1177 49.3221 48.4463L48.0053 51.1996C47.3468 52.5764 45.7562 53.2353 44.3171 52.7273L42.4145 52.0559Z" fill="#F5F5F5"/>
<path fill-rule="evenodd" clip-rule="evenodd" d="M33.6405 13.0773C31.2435 13.4702 28.2118 14.4865 25.575 16.9679C22.9366 19.4508 21.8562 22.234 21.431 24.3989C21.218 25.4837 21.1702 26.4113 21.175 27.0619C21.1774 27.3867 21.1929 27.6411 21.2072 27.8098C21.2143 27.8942 21.2211 27.9569 21.2257 27.9962C21.2281 28.0158 21.2299 28.0296 21.2309 28.0372L21.2316 28.0423C21.2317 28.0429 21.2317 28.0435 21.2318 28.044C21.3119 28.5868 20.9376 29.0923 20.3947 29.1737C19.851 29.2553 19.344 28.8807 19.2624 28.337L20.2469 28.1892C19.2624 28.337 19.2624 28.3365 19.2623 28.336L19.2621 28.3349L19.2617 28.3321L19.2607 28.3248L19.2576 28.3029C19.2552 28.2851 19.2521 28.2609 19.2485 28.2306C19.2414 28.1701 19.2323 28.0851 19.2232 27.9775C19.205 27.7625 19.1868 27.4569 19.184 27.0766C19.1783 26.3169 19.2341 25.2533 19.4773 24.0152C19.9645 21.5343 21.2071 18.3443 24.2105 15.5179C27.2157 12.6898 30.655 11.5491 33.3184 11.1124C34.6514 10.8939 35.7997 10.8499 36.6192 10.8609C37.0295 10.8664 37.3587 10.8857 37.5893 10.9042C37.7047 10.9134 37.7954 10.9225 37.8594 10.9295C37.8914 10.933 37.9168 10.9359 37.9351 10.9382L37.9574 10.941L37.9646 10.942L37.9672 10.9423L37.9683 10.9425C37.9687 10.9425 37.9691 10.9426 37.8352 11.9247L37.9691 10.9426C38.5139 11.0169 38.8953 11.5187 38.821 12.0635C38.7468 12.6077 38.2459 12.9889 37.7018 12.9156C37.7014 12.9155 37.7011 12.9155 37.7008 12.9155L37.7001 12.9154L37.6918 12.9143C37.6822 12.9132 37.6659 12.9112 37.643 12.9087C37.5974 12.9037 37.5258 12.8965 37.4305 12.8889C37.2398 12.8737 36.9548 12.8567 36.5925 12.8518C35.8669 12.8421 34.8377 12.881 33.6405 13.0773Z" fill="#BD2957"/>
<path fill-rule="evenodd" clip-rule="evenodd" d="M49.7795 34.7682C49.2614 34.5841 48.9906 34.0149 49.1747 33.4968C50.7874 28.9578 50.3099 25.2056 49.4457 22.5939C49.012 21.283 48.4792 20.2559 48.0588 19.5616C47.8489 19.2149 47.6677 18.9524 47.5423 18.7805C47.4796 18.6945 47.4309 18.6313 47.3997 18.5917C47.384 18.5719 47.3727 18.5579 47.3663 18.55L47.3605 18.543L47.361 18.5436C47.0066 18.1238 47.0593 17.4961 47.4788 17.1413C47.8986 16.7862 48.5268 16.8387 48.8818 17.2585L48.1217 17.9014C48.8818 17.2585 48.8822 17.2589 48.8825 17.2593L48.8834 17.2604L48.8854 17.2628L48.891 17.2695L48.9078 17.2899C48.9215 17.3067 48.9401 17.3297 48.9631 17.3588C49.0091 17.4171 49.0728 17.5001 49.1508 17.607C49.3067 17.8208 49.52 18.1306 49.762 18.5304C50.2457 19.3292 50.8474 20.492 51.336 21.9684C52.3164 24.9312 52.8345 29.1434 51.0509 34.1634C50.8668 34.6815 50.2976 34.9523 49.7795 34.7682Z" fill="#BD2957"/>
<path fill-rule="evenodd" clip-rule="evenodd" d="M46.5309 41.1449C46.1571 41.548 45.5272 41.5718 45.124 41.1979C44.1368 40.2825 43.575 39.8017 43.2685 39.5547C43.1154 39.4313 43.0334 39.3724 42.9994 39.3491C42.9975 39.3479 42.9959 39.3467 42.9944 39.3457C42.5497 39.099 42.3584 38.5493 42.5673 38.0747C42.7888 37.5715 43.3763 37.3431 43.8795 37.5646L43.4785 38.4758C43.8795 37.5646 43.8806 37.5651 43.8817 37.5655L43.8839 37.5665L43.8881 37.5684L43.8965 37.5722L43.9126 37.5799C43.9231 37.5849 43.9332 37.59 43.943 37.5951C43.9624 37.6052 43.9814 37.6159 44.0002 37.6269C44.0373 37.6486 44.0778 37.6745 44.1234 37.7057C44.2137 37.7675 44.3391 37.8604 44.5177 38.0043C44.8747 38.2919 45.4741 38.8072 46.4779 39.738C46.881 40.1118 46.9048 40.7417 46.5309 41.1449Z" fill="#BD2957"/>
<path fill-rule="evenodd" clip-rule="evenodd" d="M46.4945 15.9979C46.1004 16.3812 45.4701 16.3725 45.0868 15.9784C44.5114 15.3869 43.9409 15.0242 43.524 14.8119C43.3156 14.7057 43.1466 14.6377 43.0363 14.5978C42.9812 14.578 42.941 14.5652 42.9182 14.5583C42.9068 14.5549 42.8998 14.5529 42.8974 14.5523C42.8969 14.5521 42.8966 14.552 42.8966 14.552C42.8966 14.552 42.8969 14.5521 42.8975 14.5523L42.9002 14.553L42.9023 14.5535L42.9035 14.5538L42.9041 14.554C42.3711 14.4203 42.0472 13.8801 42.1804 13.3469C42.3138 12.8135 42.8543 12.4892 43.3877 12.6225L43.1462 13.5883C43.3877 12.6225 43.3881 12.6226 43.3884 12.6227L43.3891 12.6229L43.3907 12.6233L43.3942 12.6242L43.4027 12.6264L43.4255 12.6325C43.4433 12.6374 43.4661 12.6439 43.4936 12.6522C43.5485 12.6688 43.6224 12.6926 43.7125 12.7252C43.8926 12.7902 44.1383 12.8903 44.4276 13.0377C45.006 13.3322 45.7626 13.8176 46.514 14.5901C46.8974 14.9842 46.8886 15.6145 46.4945 15.9979Z" fill="#BD2957"/>
<path fill-rule="evenodd" clip-rule="evenodd" d="M40.98 45.0491C40.4448 45.1751 39.9088 44.8434 39.7828 44.3082C39.4742 42.9977 39.2761 42.2853 39.1595 41.9094C39.1012 41.7215 39.0661 41.6269 39.0508 41.5886C39.05 41.5865 39.0492 41.5847 39.0486 41.583C38.8172 41.1301 38.965 40.5673 39.4032 40.2899C39.8677 39.9958 40.4827 40.134 40.7768 40.5985L39.9357 41.131C40.7768 40.5985 40.7774 40.5996 40.7781 40.6006L40.7793 40.6026L40.7818 40.6065L40.7866 40.6144L40.7957 40.6297C40.8016 40.6397 40.8072 40.6496 40.8124 40.6593C40.8229 40.6785 40.8328 40.698 40.8422 40.7176C40.8609 40.7563 40.88 40.8003 40.9005 40.8516C40.941 40.9534 40.9932 41.1004 41.0611 41.3194C41.197 41.7573 41.407 42.5193 41.7208 43.8518C41.8469 44.387 41.5152 44.923 40.98 45.0491Z" fill="#BD2957"/>
<path fill-rule="evenodd" clip-rule="evenodd" d="M35.184 46.4531C34.6345 46.4728 34.1732 46.0433 34.1535 45.4938C34.1054 44.1483 34.0495 43.411 34.0082 43.0196C33.9875 42.824 33.9714 42.7243 33.9639 42.6838C33.9635 42.6816 33.9631 42.6796 33.9627 42.6778C33.8237 42.1887 34.0781 41.6652 34.5618 41.4782C35.0747 41.28 35.6511 41.5351 35.8493 42.0479L34.9207 42.4068C35.8493 42.0479 35.8497 42.049 35.8502 42.0501L35.851 42.0523L35.8527 42.0567L35.8559 42.0653L35.8618 42.0821C35.8656 42.0931 35.8692 42.1039 35.8725 42.1144C35.879 42.1353 35.8849 42.1563 35.8903 42.1774C35.9011 42.219 35.9114 42.2659 35.9214 42.3202C35.9414 42.4279 35.9641 42.5822 35.9882 42.8103C36.0364 43.2662 36.0943 44.0545 36.1433 45.4226C36.163 45.9721 35.7335 46.4334 35.184 46.4531Z" fill="#BD2957"/>
<path fill-rule="evenodd" clip-rule="evenodd" d="M28.2836 44.7173C27.8051 44.4465 27.6368 43.839 27.9077 43.3605C28.571 42.1889 28.9093 41.5314 29.079 41.1763C29.1637 40.9988 29.2022 40.9054 29.217 40.867C29.2178 40.8649 29.2185 40.863 29.2192 40.8613C29.3568 40.3718 29.8475 40.0589 30.3575 40.1528C30.8983 40.2524 31.2559 40.7714 31.1564 41.3121L30.1773 41.1319C31.1564 41.3121 31.1561 41.3133 31.1559 41.3145L31.1555 41.3168L31.1546 41.3214L31.1528 41.3304L31.1491 41.3478C31.1466 41.3592 31.144 41.3702 31.1413 41.3809C31.1359 41.4021 31.1299 41.4231 31.1236 41.4439C31.111 41.485 31.0951 41.5304 31.0753 41.5819C31.036 41.6841 30.9744 41.8275 30.8756 42.0344C30.678 42.4481 30.3148 43.1502 29.6403 44.3414C29.3695 44.8199 28.762 44.9882 28.2836 44.7173Z" fill="#BD2957"/>
<path fill-rule="evenodd" clip-rule="evenodd" d="M23.6671 41.5971C23.2543 41.2339 23.214 40.6048 23.5772 40.192C24.4665 39.1812 24.9324 38.607 25.1712 38.2941C25.2906 38.1378 25.3473 38.0543 25.3697 38.0197C25.3709 38.0178 25.372 38.0161 25.373 38.0146C25.608 37.5636 26.1524 37.358 26.6324 37.5544C27.1412 37.7626 27.3849 38.344 27.1767 38.8528L26.2553 38.4757C27.1767 38.8528 27.1762 38.8539 27.1758 38.855L27.1749 38.8572L27.1731 38.8615L27.1695 38.87L27.1623 38.8863C27.1575 38.8969 27.1527 38.9071 27.1478 38.917C27.1382 38.9367 27.1281 38.956 27.1176 38.9751C27.0968 39.0127 27.072 39.0538 27.042 39.1002C26.9826 39.1922 26.893 39.3199 26.7539 39.5022C26.4757 39.8666 25.9763 40.4794 25.0721 41.5072C24.7089 41.92 24.0799 41.9602 23.6671 41.5971Z" fill="#BD2957"/>
<path fill-rule="evenodd" clip-rule="evenodd" d="M20.0373 36.4953C19.7732 36.013 19.95 35.408 20.4323 35.1439C21.6131 34.4972 22.247 34.1164 22.5782 33.9038C22.7438 33.7976 22.8256 33.7385 22.8584 33.7136C22.8602 33.7123 22.8618 33.711 22.8633 33.7099C23.2381 33.3662 23.82 33.3587 24.2041 33.7071C24.6114 34.0765 24.6421 34.7061 24.2727 35.1133L23.5353 34.4445C24.2727 35.1133 24.2719 35.1142 24.2711 35.1151L24.2695 35.1168L24.2663 35.1202L24.2601 35.127L24.2477 35.1398C24.2396 35.1482 24.2316 35.1562 24.2237 35.1638C24.2079 35.179 24.1918 35.1937 24.1754 35.2081C24.1431 35.2363 24.1057 35.2666 24.0617 35.2999C23.9745 35.3661 23.8467 35.4556 23.6537 35.5795C23.2679 35.8271 22.5893 36.2326 21.3887 36.8902C20.9064 37.1543 20.3014 36.9775 20.0373 36.4953Z" fill="#BD2957"/>
</svg>
