<svg width="71" height="70" viewBox="0 0 71 70" fill="none" xmlns="http://www.w3.org/2000/svg">
<g clip-path="url(#clip0_670_8337)">
<path fill-rule="evenodd" clip-rule="evenodd" d="M0.5007 57.8154C1.0208 57.275 1.5059 56.6933 2.0673 56.2005C5.7437 52.9763 9.4509 49.7864 13.1042 46.537C13.5214 46.166 13.8168 45.5213 13.9204 44.9585C14.2333 43.24 14.9627 41.8344 16.3718 40.7494C21.0667 37.1367 25.735 33.4904 30.4138 29.8553C30.8513 29.5151 31.2811 29.1651 31.7725 28.7731C31.3189 28.1606 30.9024 27.5859 30.4733 27.0203C29.9518 26.3336 29.9686 25.6882 30.6574 25.145C32.4053 23.7667 34.1623 22.3989 35.9319 21.0472C36.62 20.5208 37.2612 20.6391 37.7953 21.3237C38.2097 21.855 38.6248 22.3856 39.1449 23.0513C40.5057 21.9943 41.8399 20.9576 43.1748 19.9216C43.991 19.2881 44.8044 18.6497 45.6262 18.0232C46.7924 17.1335 47.1403 17.1832 48.0818 18.341C48.3275 18.6434 48.5795 18.9409 48.8658 19.286C53.2198 15.9001 57.515 12.559 61.9313 9.12477C61.2691 8.25117 60.6335 7.41257 59.9972 6.57467C59.1075 5.40357 59.1509 5.01647 60.2667 4.11277C60.973 3.54087 61.6751 2.96337 62.3793 2.38867C62.6971 2.38867 63.0156 2.38867 63.3341 2.38867C64.2602 3.50237 65.1863 4.61677 66.1075 5.72557C67.8225 4.79457 67.8372 4.80087 69.0923 6.39407C69.5522 6.97787 70.0317 7.54627 70.5021 8.12237C70.5021 8.44087 70.5021 8.75937 70.5021 9.07787C67.0966 11.7589 63.6904 14.4399 60.2849 17.1223C59.9447 17.3904 59.6108 17.6648 59.2839 17.9287C60.2121 19.6948 60.2051 19.7102 58.5909 20.9618C56.8675 22.2988 55.1504 23.6428 53.4501 24.9679C54.3097 26.8208 54.3062 26.8166 52.7046 28.0612C48.366 31.4296 44.0323 34.8029 39.6979 38.1776C39.4501 38.3701 39.2191 38.585 38.9237 38.8384C41.401 41.1862 44.3571 42.3384 47.6205 42.7556C48.8364 42.911 50.0789 42.8851 51.3088 42.8984C52.2615 42.9082 52.7361 43.3212 52.6178 44.2893C52.328 46.6588 52.0067 49.0234 51.7281 51.3936C51.6014 52.4737 50.8384 52.5962 50.0061 52.6305C44.838 52.8405 39.9604 51.8283 35.4818 49.1522C35.1479 48.9534 34.8119 48.7574 34.317 48.4669C34.4703 50.2421 33.2124 50.9736 32.084 51.6197C29.8013 52.9266 28.9361 54.5849 30.0687 57.1168C30.7134 58.5574 30.2563 59.6452 28.8731 60.5111C27.5977 61.3091 26.4812 62.3584 25.2737 63.2684C24.0823 64.1644 23.2843 63.8536 23.0092 62.3822C22.4247 59.256 21.8654 56.1263 21.2907 52.9994C21.22 52.6137 21.1192 52.2343 20.9554 51.5126C20.4598 52.0096 20.0895 52.3001 19.8179 52.6648C16.4684 57.1672 13.1413 61.6857 9.7848 66.1839C9.39 66.7124 8.8545 67.1373 8.3841 67.6105C8.2245 67.6105 8.0656 67.6105 7.9067 67.6105C7.6071 67.3067 7.2739 67.0288 7.0142 66.6942C4.8351 63.8998 2.6693 61.0942 0.5 58.2935C0.5007 58.1339 0.5007 57.975 0.5007 57.8154ZM33.2754 30.7037C33.0899 30.7618 33.0024 30.766 32.9457 30.8094C27.8238 34.7847 22.6732 38.7243 17.6206 42.7857C16.9108 43.3555 16.3823 44.5 16.3067 45.424C16.2171 46.5258 15.9406 47.3021 15.0656 47.9335C14.5189 48.3283 14.0401 48.8148 13.5305 49.26C10.1453 52.2126 6.7601 55.1652 3.3063 58.1773C4.9415 60.2773 6.5354 62.3248 8.1818 64.4374C8.4996 64.0286 8.6991 63.7829 8.8867 63.5295C12.0836 59.2147 15.2868 54.9055 18.4648 50.5781C18.9702 49.8907 19.5218 49.5386 20.4178 49.4511C21.1556 49.379 21.9452 49.0017 22.5493 48.5446C25.8169 46.075 29.0355 43.5375 32.2702 41.0231C34.1196 39.5853 35.9683 38.1468 37.9115 36.6355C37.3333 35.9068 36.8062 35.2432 36.249 34.5404C33.4112 36.7468 30.6819 38.872 27.9512 40.9951C26.0983 42.4357 24.265 43.9029 22.3701 45.2861C22.0278 45.5367 21.3957 45.5626 20.9603 45.4485C20.7083 45.3834 20.3772 44.7814 20.4458 44.5126C20.5592 44.0639 20.8854 43.5886 21.2571 43.296C25.4473 40.0018 29.6634 36.7398 33.8711 33.4673C34.177 33.2293 34.4668 32.9724 34.8273 32.6707C34.2617 31.9539 33.7563 31.3127 33.2754 30.7037ZM39.742 35.2138C43.6221 32.1961 47.428 29.2344 51.2878 26.2314C49.6785 24.1636 48.1511 22.2022 46.5873 20.1939C42.6925 23.2221 38.9069 26.1649 35.0401 29.1714C36.6298 31.2147 38.1558 33.1754 39.742 35.2138ZM25.0049 60.5342C26.0038 59.7656 26.8564 59.1419 27.6614 58.4615C27.8175 58.3299 27.8798 57.9624 27.8336 57.7349C27.2512 54.8292 26.6408 51.9291 26.0003 48.8498C25.0966 49.5435 24.3077 50.1259 23.5524 50.7503C23.4089 50.8686 23.3144 51.1696 23.3473 51.3586C23.873 54.3497 24.4225 57.3366 25.0049 60.5342ZM35.5014 41.4522C39.539 45.473 44.4215 46.8527 49.9501 46.8086C50.0411 46.2962 50.1195 45.8475 50.2252 45.2511C45.1446 45.1776 40.6702 43.744 36.9896 40.2804C36.459 40.6976 36.0278 41.0371 35.5014 41.4522ZM49.6463 49.0171C43.4842 49.1333 38.0585 47.349 33.6443 42.8816C33.2537 43.1987 32.9254 43.4668 32.5733 43.7524C32.7105 43.9526 32.7777 44.0989 32.8862 44.2018C37.3382 48.4326 42.7016 50.3184 48.7769 50.3982C49.7954 50.4108 49.6498 49.757 49.6463 49.0171ZM55.5039 17.0523C53.7119 18.4495 52.0102 19.7767 50.2518 21.1473C50.872 21.9159 51.3865 22.5536 51.9248 23.2207C53.7 21.8347 55.3828 20.5208 57.1342 19.1523C56.5714 18.4264 56.0709 17.781 55.5039 17.0523ZM57.4051 15.5711C57.4527 15.7034 57.501 15.8357 57.5479 15.968C57.7831 15.9029 58.0673 15.9015 58.2458 15.7636C61.2411 13.4571 64.228 11.1387 67.2009 8.80207C67.3822 8.65927 67.4298 8.34707 67.5397 8.11327C67.4438 8.04817 67.3479 7.98307 67.2513 7.91727C63.9697 10.4688 60.6874 13.0196 57.4051 15.5711ZM36.2959 23.1724C34.9995 24.1846 33.8501 25.0827 32.6258 26.0396C32.994 26.5086 33.2957 26.8936 33.6408 27.3346C34.9099 26.3476 36.0824 25.4348 37.2969 24.4905C36.9315 24.0096 36.6487 23.6379 36.2959 23.1724ZM30.5342 45.3078C29.9049 45.8048 29.361 46.2339 28.8171 46.6637C28.8045 46.7925 28.7933 46.9206 28.7814 47.0501C29.662 47.2783 30.5426 47.5072 31.727 47.8159C31.2426 46.7946 30.9108 46.0988 30.5342 45.3078ZM62.3611 5.48267C63.4853 7.50637 63.5462 7.55677 64.256 7.19417C63.6099 6.60827 63.4146 5.56317 62.3611 5.48267ZM28.8332 51.2599C29.4569 50.7727 29.8762 50.4437 30.4138 50.0223C29.7019 49.855 29.1636 49.729 28.5252 49.5792C28.6316 50.1574 28.7121 50.5977 28.8332 51.2599Z" fill="#F5F5F5"/>
<path fill-rule="evenodd" clip-rule="evenodd" d="M15.3136 2.38882C15.7315 2.99572 16.2138 3.56832 16.5554 4.21512C17.4815 5.97142 18.3684 7.74942 19.2273 9.54002C19.5276 10.1658 19.8755 10.513 20.6266 10.6019C22.7952 10.8588 24.9582 11.1829 27.1058 11.5756C27.6602 11.6771 28.4533 12.0334 28.5842 12.4471C28.7158 12.8643 28.2762 13.6091 27.8849 14.0186C26.4296 15.5425 24.9127 17.009 23.3734 18.4489C22.7917 18.9928 22.5677 19.5437 22.7168 20.3319C23.1102 22.3997 23.4952 24.471 23.7808 26.5549C23.8634 27.1583 23.5988 27.8093 23.4931 28.4379C22.8701 28.3329 22.182 28.3616 21.6367 28.097C19.7068 27.1639 17.8448 26.0887 15.9086 25.1654C15.4648 24.9533 14.7424 24.9498 14.3028 25.1654C12.3064 26.1454 10.3842 27.2759 8.39198 28.2636C7.92578 28.4946 7.12428 28.608 6.77708 28.3581C6.44318 28.118 6.33958 27.3165 6.41028 26.7985C6.71618 24.5571 7.16138 22.3346 7.46028 20.0925C7.52118 19.6354 7.31118 18.9914 6.99198 18.6596C5.42048 17.0272 3.74048 15.4991 2.16898 13.8667C1.81128 13.4943 1.49698 12.8006 1.59988 12.3547C1.67898 12.0103 2.41468 11.6792 2.90328 11.5917C5.09148 11.2004 7.30488 10.9414 9.48958 10.5305C9.97328 10.4395 10.5543 10.0244 10.7888 9.59392C11.8535 7.64162 12.7915 5.62002 13.8212 3.64812C14.0662 3.17912 14.4932 2.80462 14.8362 2.38672C14.9951 2.38882 15.154 2.38882 15.3136 2.38882ZM8.64258 25.5721C10.2687 24.7342 11.7415 24.1189 13.054 23.2586C14.4512 22.3423 15.6454 22.4382 17.0069 23.2838C18.3313 24.1063 19.7635 24.7552 21.3875 25.6043C21.0599 23.6135 20.8548 21.9223 20.4845 20.2675C20.2129 19.0509 20.4334 18.1577 21.3819 17.2967C22.6237 16.1697 23.7276 14.8908 25.0569 13.5048C22.966 13.1905 21.1768 12.858 19.3722 12.676C18.4153 12.5794 17.8721 12.186 17.4801 11.3306C16.7003 9.62402 15.8358 7.95662 14.8971 6.05192C13.9395 7.99442 13.0673 9.68212 12.2763 11.4055C11.9214 12.1783 11.4482 12.557 10.5809 12.655C8.71048 12.8664 6.85268 13.1926 4.78348 13.5034C6.26608 15 7.55268 16.3398 8.88828 17.6278C9.51338 18.2298 9.79408 18.8143 9.60508 19.7299C9.22218 21.5786 8.98208 23.456 8.64258 25.5721Z" fill="#BD2957"/>
</g>
<defs>
<clipPath id="clip0_670_8337">
<rect width="70" height="70" fill="white" transform="translate(0.5)"/>
</clipPath>
</defs>
</svg>
