<svg width="86" height="70" viewBox="0 0 86 70" fill="none" xmlns="http://www.w3.org/2000/svg">
<path fill-rule="evenodd" clip-rule="evenodd" d="M50.1237 50.0632C51.7622 48.1386 52.7491 45.2842 52.7491 41.7572C52.7491 38.3529 51.6392 35.6983 49.9352 33.9141C48.2392 32.1384 45.7855 31.044 42.7271 31.044C37.3094 31.044 32.3594 35.0499 32.3594 41.3753C32.3594 44.8572 33.4085 47.8224 35.1557 49.8698C36.8629 51.8706 39.3693 53.1616 42.7271 53.1616C46.1321 53.1616 48.5327 51.9319 50.1237 50.0632ZM42.7271 55.9264C51.016 55.9264 55.5138 49.7936 55.5138 41.7572C55.5138 33.7209 50.2313 28.2793 42.7271 28.2793C35.9733 28.2793 29.5947 33.3389 29.5947 41.3753C29.5947 49.4116 34.4382 55.9264 42.7271 55.9264Z" fill="#F5F5F5"/>
<path fill-rule="evenodd" clip-rule="evenodd" d="M68.2761 54.4521C68.672 54.0419 68.9902 53.3584 68.9902 52.3326C68.9902 51.447 68.6783 50.8522 68.2562 50.4623C67.8156 50.0552 67.0692 49.7061 65.9582 49.7061C65.0105 49.7061 64.1568 50.0247 63.5878 50.4919C63.059 50.9261 62.7696 51.4781 62.7696 52.1798C62.7696 53.1566 63.097 53.8949 63.5598 54.3735C64.0043 54.8331 64.7484 55.2355 65.9582 55.2355C67.2123 55.2355 67.8989 54.8431 68.2761 54.4521ZM65.9582 58.0002C69.7159 58.0002 71.7549 55.5471 71.7549 52.3326C71.7549 49.118 69.3601 46.9414 65.9582 46.9414C62.8965 46.9414 60.0049 48.9653 60.0049 52.1798C60.0049 55.3943 62.2006 58.0002 65.9582 58.0002Z" fill="#F5F5F5"/>
<path fill-rule="evenodd" clip-rule="evenodd" d="M21.9675 54.4521C22.3634 54.0419 22.6816 53.3584 22.6816 52.3326C22.6816 51.447 22.3697 50.8522 21.9476 50.4623C21.507 50.0552 20.7606 49.7061 19.6496 49.7061C18.7019 49.7061 17.8482 50.0247 17.2792 50.4919C16.7504 50.9261 16.461 51.4781 16.461 52.1798C16.461 53.1566 16.7884 53.8949 17.2512 54.3735C17.6957 54.8331 18.4398 55.2355 19.6496 55.2355C20.9037 55.2355 21.5903 54.8431 21.9675 54.4521ZM19.6496 58.0002C23.4073 58.0002 25.4463 55.5471 25.4463 52.3326C25.4463 49.118 23.0515 46.9414 19.6496 46.9414C16.5879 46.9414 13.6963 48.9653 13.6963 52.1798C13.6963 55.3943 15.892 58.0002 19.6496 58.0002Z" fill="#F5F5F5"/>
<path fill-rule="evenodd" clip-rule="evenodd" d="M17.8447 33.8081C17.8447 33.0447 18.4636 32.4258 19.2271 32.4258L33.7418 32.4258V35.1905L19.2271 35.1905C18.4636 35.1905 17.8447 34.5716 17.8447 33.8081Z" fill="#F5F5F5"/>
<path fill-rule="evenodd" clip-rule="evenodd" d="M68.2998 33.8091C68.2998 34.5725 67.6809 35.1914 66.9175 35.1914H51.7116V32.4267H66.9175C67.6809 32.4267 68.2998 33.0456 68.2998 33.8091Z" fill="#F5F5F5"/>
<path fill-rule="evenodd" clip-rule="evenodd" d="M47.5654 35.1919C47.5654 35.9553 47.0239 36.5742 46.3559 36.5742H39.0985C38.4305 36.5742 37.889 35.9553 37.889 35.1919C37.889 34.4284 38.4305 33.8095 39.0985 33.8095H46.3559C47.0239 33.8095 47.5654 34.4284 47.5654 35.1919Z" fill="#BD2957"/>
<path fill-rule="evenodd" clip-rule="evenodd" d="M58.624 42.7945C58.624 42.031 59.2429 41.4121 60.0064 41.4121L84.8887 41.4121L84.8887 44.1768L60.0064 44.1768C59.2429 44.1768 58.624 43.5579 58.624 42.7945Z" fill="#F5F5F5"/>
<path d="M82.2496 43.2514L82.25 43.2505L82.251 43.2485C82.5721 42.5574 83.3921 42.2562 84.0843 42.5759C84.7774 42.8961 85.0798 43.7174 84.7596 44.4105L83.5048 43.831C84.7596 44.4105 84.7594 44.4109 84.7592 44.4114L84.7578 44.4145L84.7552 44.4201L84.7476 44.4362C84.7415 44.449 84.7333 44.4661 84.7231 44.4871C84.7026 44.5291 84.6738 44.587 84.6369 44.6585C84.5631 44.8013 84.4561 44.9995 84.3172 45.2349C84.0412 45.7025 83.63 46.3321 83.091 46.9686C82.0554 48.1917 80.3216 49.7022 77.9759 49.7028C73.1372 49.704 66.9164 49.7043 61.9053 49.7043L53.0929 49.7041C53.0928 49.7041 53.0927 49.7041 53.0928 48.3217C53.0929 46.9394 53.0935 46.9394 53.0936 46.9394L61.9053 46.9396C66.9164 46.9396 73.1369 46.9393 77.9752 46.9381C79.0854 46.9378 80.1161 46.2036 80.9811 45.1821C81.3924 44.6963 81.7155 44.2037 81.9362 43.8297C82.0457 43.6442 82.1277 43.4917 82.1808 43.3891C82.2073 43.3378 82.2264 43.2993 82.238 43.2755L82.2496 43.2514Z" fill="#F5F5F5"/>
<path fill-rule="evenodd" clip-rule="evenodd" d="M3.25337 43.3826L3.25379 43.3834L3.26534 43.4076C3.27683 43.4313 3.29581 43.4698 3.32211 43.521C3.37481 43.6236 3.45627 43.776 3.56499 43.9613C3.78423 44.3351 4.10506 44.8271 4.51358 45.3122C5.37346 46.3333 6.39505 47.0623 7.49261 47.0616C12.3054 47.0587 18.4932 47.0536 23.4778 47.0494L32.2431 47.0415C32.2433 47.0415 32.2438 47.0415 32.2451 48.4239C32.2464 49.8063 32.2464 49.8063 32.2462 49.8063L23.4802 49.8141C18.4955 49.8183 12.3075 49.8234 7.49432 49.8263C5.15415 49.8278 3.42765 48.3147 2.39888 47.0931C1.86307 46.4569 1.45443 45.8275 1.18028 45.3602C1.0423 45.1249 0.936088 44.9268 0.862789 44.7841C0.826089 44.7126 0.797494 44.6548 0.777155 44.6128C0.766981 44.5918 0.75886 44.5747 0.75281 44.5619L0.745287 44.5458L0.742691 44.5402L0.741256 44.5371C0.741062 44.5367 0.740876 44.5363 1.99729 43.9598L0.740876 44.5363C0.422496 43.8424 0.726913 43.0218 1.42081 42.7034C2.11377 42.3854 2.93309 42.6886 3.2524 43.3805C3.25272 43.3812 3.25305 43.3819 3.25337 43.3826Z" fill="#F5F5F5"/>
<path fill-rule="evenodd" clip-rule="evenodd" d="M26.8291 42.7934C26.8291 43.5569 26.2102 44.1758 25.4467 44.1758L0.564396 44.1758L0.564396 41.4111L25.4467 41.4111C26.2102 41.4111 26.8291 42.03 26.8291 42.7934Z" fill="#F5F5F5"/>
<path fill-rule="evenodd" clip-rule="evenodd" d="M40.9767 18.7894C40.9897 19.5096 41.0035 20.2739 40.9975 21.0302C40.9809 23.1477 40.9809 25.3037 40.9851 26.9311C40.9872 27.7446 40.9903 28.4256 40.9929 28.9031C40.9942 29.1419 40.9953 29.3297 40.9962 29.4578L40.9975 29.6539L38.9241 29.6696L38.9227 29.4715C38.9219 29.3426 38.9207 29.154 38.9194 28.9144C38.9168 28.4352 38.9136 27.7522 38.9116 26.9364C38.9074 25.3052 38.9074 23.1413 38.9241 21.0139C38.9299 20.278 38.917 19.5712 38.9042 18.874C38.8967 18.4607 38.8892 18.0507 38.8857 17.6399C38.8766 16.5715 38.8955 15.5235 39.0364 14.6058C39.1756 13.6997 39.4521 12.7858 40.0633 12.0927C40.7157 11.3529 41.6255 11 42.7257 11C43.8473 11 44.7594 11.385 45.4054 12.1474C46.0082 12.8588 46.2852 13.7908 46.4256 14.7117C46.568 15.6456 46.5878 16.7009 46.5774 17.7592C46.5729 18.2151 46.5631 18.6607 46.5534 19.1053C46.5396 19.7369 46.5259 20.3663 46.5272 21.0199C46.5315 23.1191 46.5315 25.28 46.5305 26.916C46.5299 27.734 46.5291 28.4209 46.5285 28.9033L46.5272 29.6629L46.5272 29.6637L44.4537 29.6597L44.4549 28.9004C44.4556 28.4184 44.4564 27.7321 44.4569 26.9146C44.458 25.2796 44.458 23.1207 44.4537 21.0242C44.4524 20.3632 44.4672 19.6714 44.4814 19.0085C44.4908 18.5665 44.5 18.1373 44.5039 17.7387C44.5142 16.6969 44.4914 15.7827 44.3758 15.0242C44.2581 14.2525 44.0616 13.769 43.8235 13.4879C43.6285 13.2579 43.3322 13.0735 42.7257 13.0735C42.0981 13.0735 41.8029 13.2551 41.6186 13.4641C41.3931 13.7197 41.2014 14.1691 41.0859 14.9206C40.9723 15.6604 40.9502 16.5644 40.9592 17.6223C40.9623 17.991 40.9694 18.3832 40.9767 18.7894Z" fill="#F5F5F5"/>
</svg>
